%TF.GenerationSoftware,KiCad,Pcbnew,8.0.8*%
%TF.CreationDate,2025-02-21T17:49:15-05:00*%
%TF.ProjectId,linchenajuancarlos,6c696e63-6865-46e6-916a-75616e636172,rev?*%
%TF.SameCoordinates,Original*%
%TF.FileFunction,Copper,L2,Bot*%
%TF.FilePolarity,Positive*%
%FSLAX46Y46*%
G04 Gerber Fmt 4.6, Leading zero omitted, Abs format (unit mm)*
G04 Created by KiCad (PCBNEW 8.0.8) date 2025-02-21 17:49:15*
%MOMM*%
%LPD*%
G01*
G04 APERTURE LIST*
G04 Aperture macros list*
%AMRoundRect*
0 Rectangle with rounded corners*
0 $1 Rounding radius*
0 $2 $3 $4 $5 $6 $7 $8 $9 X,Y pos of 4 corners*
0 Add a 4 corners polygon primitive as box body*
4,1,4,$2,$3,$4,$5,$6,$7,$8,$9,$2,$3,0*
0 Add four circle primitives for the rounded corners*
1,1,$1+$1,$2,$3*
1,1,$1+$1,$4,$5*
1,1,$1+$1,$6,$7*
1,1,$1+$1,$8,$9*
0 Add four rect primitives between the rounded corners*
20,1,$1+$1,$2,$3,$4,$5,0*
20,1,$1+$1,$4,$5,$6,$7,0*
20,1,$1+$1,$6,$7,$8,$9,0*
20,1,$1+$1,$8,$9,$2,$3,0*%
G04 Aperture macros list end*
%TA.AperFunction,ComponentPad*%
%ADD10R,1.700000X1.700000*%
%TD*%
%TA.AperFunction,ComponentPad*%
%ADD11O,1.700000X1.700000*%
%TD*%
%TA.AperFunction,ComponentPad*%
%ADD12C,1.524000*%
%TD*%
%TA.AperFunction,ComponentPad*%
%ADD13R,3.500000X3.500000*%
%TD*%
%TA.AperFunction,ComponentPad*%
%ADD14C,3.500000*%
%TD*%
%TA.AperFunction,ComponentPad*%
%ADD15R,1.530000X1.530000*%
%TD*%
%TA.AperFunction,ComponentPad*%
%ADD16C,1.530000*%
%TD*%
%TA.AperFunction,ComponentPad*%
%ADD17RoundRect,0.750000X0.750000X1.000000X-0.750000X1.000000X-0.750000X-1.000000X0.750000X-1.000000X0*%
%TD*%
%TA.AperFunction,ComponentPad*%
%ADD18RoundRect,0.875000X0.875000X0.875000X-0.875000X0.875000X-0.875000X-0.875000X0.875000X-0.875000X0*%
%TD*%
%TA.AperFunction,ComponentPad*%
%ADD19C,1.400000*%
%TD*%
%TA.AperFunction,ComponentPad*%
%ADD20O,1.400000X1.400000*%
%TD*%
%TA.AperFunction,ViaPad*%
%ADD21C,1.100000*%
%TD*%
%TA.AperFunction,Conductor*%
%ADD22C,0.800000*%
%TD*%
%TA.AperFunction,Conductor*%
%ADD23C,0.900000*%
%TD*%
%TA.AperFunction,Conductor*%
%ADD24C,0.600000*%
%TD*%
%TA.AperFunction,Conductor*%
%ADD25C,1.000000*%
%TD*%
G04 APERTURE END LIST*
D10*
%TO.P,J1,1,Pin_1*%
%TO.N,GND*%
X104475000Y-62080000D03*
D11*
%TO.P,J1,2,Pin_2*%
%TO.N,DQ*%
X104475000Y-59540000D03*
%TO.P,J1,3,Pin_3*%
%TO.N,VCC*%
X104475000Y-57000000D03*
%TD*%
D12*
%TO.P,U2,1,VIN*%
%TO.N,Net-(U2-VIN)*%
X33150000Y-56930000D03*
%TO.P,U2,2,GND*%
%TO.N,GND*%
X35690000Y-56930000D03*
%TO.P,U2,3,GND*%
X38230000Y-56930000D03*
%TO.P,U2,4,BAT*%
%TO.N,Net-(BT1-+)*%
X40770000Y-56930000D03*
%TO.P,U2,5,GND*%
%TO.N,GND*%
X43310000Y-56930000D03*
%TO.P,U2,6,OUT-5V*%
%TO.N,+5V*%
X45850000Y-56930000D03*
%TD*%
D10*
%TO.P,J3,1,Pin_1*%
%TO.N,SCL*%
X109525000Y-40700000D03*
D11*
%TO.P,J3,2,Pin_2*%
%TO.N,SDA*%
X109525000Y-43240000D03*
%TO.P,J3,3,Pin_3*%
%TO.N,VCC*%
X109525000Y-45780000D03*
%TO.P,J3,4,Pin_4*%
%TO.N,GND*%
X109525000Y-48320000D03*
%TD*%
D10*
%TO.P,J4,1,Pin_1*%
%TO.N,VCC*%
X115000000Y-37580000D03*
D11*
%TO.P,J4,2,Pin_2*%
%TO.N,OUT*%
X115000000Y-35040000D03*
%TO.P,J4,3,Pin_3*%
%TO.N,SCK*%
X115000000Y-32500000D03*
%TO.P,J4,4,Pin_4*%
%TO.N,GND*%
X115000000Y-29960000D03*
%TD*%
D13*
%TO.P,BT1,1,+*%
%TO.N,Net-(BT1-+)*%
X37500000Y-97500000D03*
D14*
%TO.P,BT1,2,-*%
%TO.N,GND*%
X109500000Y-97500000D03*
%TD*%
D15*
%TO.P,U1,1,3V3*%
%TO.N,VCC*%
X65000000Y-23940000D03*
D16*
%TO.P,U1,2,EN*%
%TO.N,unconnected-(U1-EN-Pad2)*%
X65000000Y-26480000D03*
%TO.P,U1,3,SENSOR_VP*%
%TO.N,unconnected-(U1-SENSOR_VP-Pad3)*%
X65000000Y-29020000D03*
%TO.P,U1,4,SENSOR_VN*%
%TO.N,unconnected-(U1-SENSOR_VN-Pad4)*%
X65000000Y-31560000D03*
%TO.P,U1,5,IO34*%
%TO.N,unconnected-(U1-IO34-Pad5)*%
X65000000Y-34100000D03*
%TO.P,U1,6,IO35*%
%TO.N,unconnected-(U1-IO35-Pad6)*%
X65000000Y-36640000D03*
%TO.P,U1,7,IO32*%
%TO.N,unconnected-(U1-IO32-Pad7)*%
X65000000Y-39180000D03*
%TO.P,U1,8,IO33*%
%TO.N,unconnected-(U1-IO33-Pad8)*%
X65000000Y-41720000D03*
%TO.P,U1,9,IO25*%
%TO.N,unconnected-(U1-IO25-Pad9)*%
X65000000Y-44260000D03*
%TO.P,U1,10,IO26*%
%TO.N,unconnected-(U1-IO26-Pad10)*%
X65000000Y-46800000D03*
%TO.P,U1,11,IO27*%
%TO.N,unconnected-(U1-IO27-Pad11)*%
X65000000Y-49340000D03*
%TO.P,U1,12,IO14*%
%TO.N,unconnected-(U1-IO14-Pad12)*%
X65000000Y-51880000D03*
%TO.P,U1,13,IO12*%
%TO.N,unconnected-(U1-IO12-Pad13)*%
X65000000Y-54420000D03*
%TO.P,U1,14,GND1*%
%TO.N,GND*%
X65000000Y-56960000D03*
%TO.P,U1,15,IO13*%
%TO.N,unconnected-(U1-IO13-Pad15)*%
X65000000Y-59500000D03*
%TO.P,U1,16,SD2*%
%TO.N,unconnected-(U1-SD2-Pad16)*%
X65000000Y-62040000D03*
%TO.P,U1,17,SD3*%
%TO.N,unconnected-(U1-SD3-Pad17)*%
X65000000Y-64580000D03*
%TO.P,U1,18,CMD*%
%TO.N,unconnected-(U1-CMD-Pad18)*%
X65000000Y-67120000D03*
%TO.P,U1,19,EXT_5V*%
%TO.N,+5V*%
X65000000Y-69660000D03*
%TO.P,U1,20,CLK*%
%TO.N,unconnected-(U1-CLK-Pad20)*%
X90400000Y-69660000D03*
%TO.P,U1,21,SD0*%
%TO.N,unconnected-(U1-SD0-Pad21)*%
X90400000Y-67120000D03*
%TO.P,U1,22,SD1*%
%TO.N,unconnected-(U1-SD1-Pad22)*%
X90400000Y-64580000D03*
%TO.P,U1,23,IO15*%
%TO.N,unconnected-(U1-IO15-Pad23)*%
X90400000Y-62040000D03*
%TO.P,U1,24,IO2*%
%TO.N,unconnected-(U1-IO2-Pad24)*%
X90400000Y-59500000D03*
%TO.P,U1,25,IO0*%
%TO.N,unconnected-(U1-IO0-Pad25)*%
X90400000Y-56960000D03*
%TO.P,U1,26,IO4*%
%TO.N,DQ*%
X90400000Y-54420000D03*
%TO.P,U1,27,IO16*%
%TO.N,SDA*%
X90400000Y-51880000D03*
%TO.P,U1,28,IO17*%
%TO.N,SCL*%
X90400000Y-49340000D03*
%TO.P,U1,29,IO5*%
%TO.N,unconnected-(U1-IO5-Pad29)*%
X90400000Y-46800000D03*
%TO.P,U1,30,IO18*%
%TO.N,unconnected-(U1-IO18-Pad30)*%
X90400000Y-44260000D03*
%TO.P,U1,31,IO19*%
%TO.N,unconnected-(U1-IO19-Pad31)*%
X90400000Y-41720000D03*
%TO.P,U1,32,GND2*%
%TO.N,GND*%
X90400000Y-39180000D03*
%TO.P,U1,33,IO21*%
%TO.N,OUT*%
X90400000Y-36640000D03*
%TO.P,U1,34,RXD0*%
%TO.N,unconnected-(U1-RXD0-Pad34)*%
X90400000Y-34100000D03*
%TO.P,U1,35,TXD0*%
%TO.N,unconnected-(U1-TXD0-Pad35)*%
X90400000Y-31560000D03*
%TO.P,U1,36,IO22*%
%TO.N,SCK*%
X90400000Y-29020000D03*
%TO.P,U1,37,IO23*%
%TO.N,unconnected-(U1-IO23-Pad37)*%
X90400000Y-26480000D03*
%TO.P,U1,38,GND3*%
%TO.N,GND*%
X90400000Y-23940000D03*
%TD*%
D13*
%TO.P,J5,1*%
%TO.N,Net-(U2-VIN)*%
X115000000Y-78500000D03*
D17*
%TO.P,J5,2*%
%TO.N,GND*%
X121000000Y-78500000D03*
D18*
%TO.P,J5,3*%
X118000000Y-73800000D03*
%TD*%
D19*
%TO.P,R1,1*%
%TO.N,VCC*%
X97000000Y-52690000D03*
D20*
%TO.P,R1,2*%
%TO.N,DQ*%
X97000000Y-60310000D03*
%TD*%
D21*
%TO.N,GND*%
X117000000Y-23000000D03*
X121000000Y-23000000D03*
%TD*%
D22*
%TO.N,GND*%
X43310000Y-56930000D02*
X43310000Y-54690000D01*
D23*
%TO.N,Net-(U2-VIN)*%
X115000000Y-100000000D02*
X115000000Y-78500000D01*
X33150000Y-56930000D02*
X33150000Y-76350000D01*
X32500000Y-113000000D02*
X102000000Y-113000000D01*
X29500000Y-80000000D02*
X29500000Y-110000000D01*
X29500000Y-110000000D02*
X32500000Y-113000000D01*
X102000000Y-113000000D02*
X115000000Y-100000000D01*
X33150000Y-76350000D02*
X29500000Y-80000000D01*
D24*
%TO.N,Net-(BT1-+)*%
X40770000Y-94230000D02*
X37500000Y-97500000D01*
D23*
X40770000Y-56930000D02*
X40770000Y-94230000D01*
D25*
%TO.N,GND*%
X90400000Y-39180000D02*
X91820000Y-39180000D01*
X90400000Y-23940000D02*
X93940000Y-23940000D01*
X91820000Y-39180000D02*
X92000000Y-39000000D01*
X121000000Y-78500000D02*
X121000000Y-76800000D01*
X93940000Y-23940000D02*
X94000000Y-24000000D01*
D24*
%TO.N,VCC*%
X119000000Y-36500000D02*
X119000000Y-21000000D01*
X104475000Y-57000000D02*
X101310000Y-57000000D01*
X105500000Y-52500000D02*
X105500000Y-48000000D01*
X97000000Y-51000000D02*
X100000000Y-48000000D01*
X100000000Y-48000000D02*
X105500000Y-48000000D01*
X101310000Y-57000000D02*
X97000000Y-52690000D01*
X118000000Y-50500000D02*
X118000000Y-54500000D01*
X118000000Y-50500000D02*
X118000000Y-37500000D01*
X65000000Y-23940000D02*
X65000000Y-19000000D01*
X97000000Y-52690000D02*
X97000000Y-51000000D01*
X115000000Y-37580000D02*
X117920000Y-37580000D01*
X118000000Y-54500000D02*
X115000000Y-57500000D01*
X117000000Y-19000000D02*
X65000000Y-19000000D01*
X117920000Y-37580000D02*
X118000000Y-37500000D01*
X117920000Y-37580000D02*
X119000000Y-36500000D01*
X105500000Y-48000000D02*
X107720000Y-45780000D01*
X115000000Y-57500000D02*
X110500000Y-57500000D01*
X107720000Y-45780000D02*
X109525000Y-45780000D01*
X119000000Y-21000000D02*
X117000000Y-19000000D01*
X110500000Y-57500000D02*
X105500000Y-52500000D01*
%TO.N,DQ*%
X101000000Y-59500000D02*
X101040000Y-59540000D01*
X91110000Y-54420000D02*
X90400000Y-54420000D01*
X100190000Y-60310000D02*
X101000000Y-59500000D01*
X101040000Y-59540000D02*
X104475000Y-59540000D01*
X97000000Y-60310000D02*
X91110000Y-54420000D01*
X97000000Y-60310000D02*
X100190000Y-60310000D01*
%TO.N,SCL*%
X99040000Y-40700000D02*
X109525000Y-40700000D01*
X90400000Y-49340000D02*
X99040000Y-40700000D01*
%TO.N,SDA*%
X109525000Y-43240000D02*
X99040000Y-43240000D01*
X99040000Y-43240000D02*
X90400000Y-51880000D01*
%TO.N,SCK*%
X110500000Y-32500000D02*
X107000000Y-29000000D01*
X107000000Y-29000000D02*
X106000000Y-29000000D01*
X106000000Y-29000000D02*
X105980000Y-29020000D01*
X105980000Y-29020000D02*
X90400000Y-29020000D01*
X115000000Y-32500000D02*
X110500000Y-32500000D01*
%TO.N,OUT*%
X92000000Y-35040000D02*
X90400000Y-36640000D01*
X115000000Y-35040000D02*
X92000000Y-35040000D01*
%TO.N,+5V*%
X50430000Y-56930000D02*
X63160000Y-69660000D01*
X63160000Y-69660000D02*
X65000000Y-69660000D01*
X45850000Y-56930000D02*
X50430000Y-56930000D01*
%TD*%
%TA.AperFunction,Conductor*%
%TO.N,GND*%
G36*
X61641585Y-18020713D02*
G01*
X61770780Y-18079714D01*
X61878119Y-18172724D01*
X61954906Y-18292208D01*
X61994921Y-18428485D01*
X62000000Y-18499500D01*
X62000000Y-31500000D01*
X62777462Y-31500000D01*
X62918047Y-31520213D01*
X63047242Y-31579214D01*
X63154581Y-31672224D01*
X63231368Y-31791708D01*
X63263950Y-31887960D01*
X63308205Y-32081850D01*
X63404879Y-32328170D01*
X63404881Y-32328173D01*
X63404881Y-32328174D01*
X63546521Y-32573502D01*
X63544162Y-32574863D01*
X63593944Y-32676485D01*
X63617962Y-32816470D01*
X63601568Y-32957551D01*
X63546091Y-33088298D01*
X63540095Y-33097626D01*
X63404881Y-33331825D01*
X63404881Y-33331826D01*
X63404879Y-33331830D01*
X63372283Y-33414883D01*
X63308204Y-33578152D01*
X63249324Y-33836123D01*
X63249323Y-33836128D01*
X63229549Y-34100000D01*
X63249323Y-34363872D01*
X63308205Y-34621850D01*
X63404879Y-34868170D01*
X63404881Y-34868173D01*
X63404881Y-34868174D01*
X63546521Y-35113502D01*
X63544162Y-35114863D01*
X63593944Y-35216485D01*
X63617962Y-35356470D01*
X63601568Y-35497551D01*
X63546091Y-35628298D01*
X63540095Y-35637626D01*
X63404881Y-35871825D01*
X63404881Y-35871826D01*
X63308204Y-36118152D01*
X63257455Y-36340500D01*
X63249323Y-36376128D01*
X63229549Y-36640000D01*
X63249323Y-36903872D01*
X63249324Y-36903875D01*
X63249324Y-36903876D01*
X63271086Y-36999224D01*
X63308205Y-37161850D01*
X63404879Y-37408170D01*
X63404881Y-37408173D01*
X63404881Y-37408174D01*
X63546521Y-37653502D01*
X63544162Y-37654863D01*
X63593944Y-37756485D01*
X63617962Y-37896470D01*
X63601568Y-38037551D01*
X63546091Y-38168298D01*
X63540095Y-38177626D01*
X63404881Y-38411825D01*
X63404881Y-38411826D01*
X63404879Y-38411830D01*
X63404793Y-38412049D01*
X63308204Y-38658152D01*
X63249324Y-38916123D01*
X63249323Y-38916128D01*
X63229549Y-39180000D01*
X63249323Y-39443872D01*
X63249324Y-39443876D01*
X63308171Y-39701704D01*
X63308205Y-39701850D01*
X63404879Y-39948170D01*
X63404881Y-39948173D01*
X63404881Y-39948174D01*
X63546521Y-40193502D01*
X63544162Y-40194863D01*
X63593944Y-40296485D01*
X63617962Y-40436470D01*
X63601568Y-40577551D01*
X63546091Y-40708298D01*
X63540095Y-40717626D01*
X63404881Y-40951825D01*
X63404881Y-40951826D01*
X63308204Y-41198152D01*
X63249324Y-41456123D01*
X63249323Y-41456128D01*
X63229549Y-41720000D01*
X63249323Y-41983872D01*
X63308205Y-42241850D01*
X63404879Y-42488170D01*
X63404881Y-42488173D01*
X63404881Y-42488174D01*
X63546521Y-42733502D01*
X63544162Y-42734863D01*
X63593944Y-42836485D01*
X63617962Y-42976470D01*
X63601568Y-43117551D01*
X63546091Y-43248298D01*
X63540095Y-43257626D01*
X63404881Y-43491825D01*
X63404881Y-43491826D01*
X63404879Y-43491830D01*
X63340429Y-43656043D01*
X63308204Y-43738152D01*
X63249324Y-43996123D01*
X63249323Y-43996128D01*
X63229549Y-44260000D01*
X63249323Y-44523872D01*
X63249324Y-44523876D01*
X63307095Y-44776989D01*
X63308205Y-44781850D01*
X63404879Y-45028170D01*
X63404881Y-45028173D01*
X63404881Y-45028174D01*
X63546521Y-45273502D01*
X63544162Y-45274863D01*
X63593944Y-45376485D01*
X63617962Y-45516470D01*
X63601568Y-45657551D01*
X63546091Y-45788298D01*
X63540095Y-45797626D01*
X63404881Y-46031825D01*
X63404881Y-46031826D01*
X63404879Y-46031830D01*
X63340429Y-46196043D01*
X63308204Y-46278152D01*
X63249324Y-46536123D01*
X63249323Y-46536128D01*
X63229549Y-46800000D01*
X63249323Y-47063872D01*
X63249324Y-47063876D01*
X63303586Y-47301616D01*
X63308205Y-47321850D01*
X63404879Y-47568170D01*
X63404881Y-47568173D01*
X63404881Y-47568174D01*
X63546521Y-47813502D01*
X63544162Y-47814863D01*
X63593944Y-47916485D01*
X63617962Y-48056470D01*
X63601568Y-48197551D01*
X63546091Y-48328298D01*
X63540095Y-48337626D01*
X63404881Y-48571825D01*
X63404881Y-48571826D01*
X63404879Y-48571830D01*
X63385574Y-48621019D01*
X63308204Y-48818152D01*
X63249324Y-49076123D01*
X63249323Y-49076128D01*
X63229549Y-49340000D01*
X63249323Y-49603872D01*
X63308205Y-49861850D01*
X63404879Y-50108170D01*
X63404881Y-50108173D01*
X63404881Y-50108174D01*
X63546521Y-50353502D01*
X63544162Y-50354863D01*
X63593944Y-50456485D01*
X63617962Y-50596470D01*
X63601568Y-50737551D01*
X63546091Y-50868298D01*
X63540095Y-50877626D01*
X63404881Y-51111825D01*
X63404881Y-51111826D01*
X63308204Y-51358152D01*
X63266999Y-51538684D01*
X63249323Y-51616128D01*
X63229549Y-51880000D01*
X63249323Y-52143872D01*
X63308205Y-52401850D01*
X63404879Y-52648170D01*
X63404881Y-52648173D01*
X63404881Y-52648174D01*
X63546521Y-52893502D01*
X63544162Y-52894863D01*
X63593944Y-52996485D01*
X63617962Y-53136470D01*
X63601568Y-53277551D01*
X63546091Y-53408298D01*
X63540095Y-53417626D01*
X63404881Y-53651825D01*
X63404881Y-53651826D01*
X63308204Y-53898152D01*
X63279388Y-54024403D01*
X63249323Y-54156128D01*
X63229549Y-54420000D01*
X63249323Y-54683872D01*
X63308205Y-54941850D01*
X63404879Y-55188170D01*
X63404881Y-55188173D01*
X63404881Y-55188174D01*
X63546521Y-55433502D01*
X63544141Y-55434875D01*
X63593848Y-55536322D01*
X63617877Y-55676305D01*
X63601496Y-55817387D01*
X63551210Y-55939375D01*
X63405330Y-56192048D01*
X63405330Y-56192049D01*
X63308685Y-56438295D01*
X63249821Y-56696197D01*
X63249820Y-56696199D01*
X63230051Y-56960000D01*
X63249820Y-57223800D01*
X63249821Y-57223802D01*
X63308686Y-57481705D01*
X63308686Y-57481707D01*
X63405327Y-57727945D01*
X63405333Y-57727956D01*
X63551209Y-57980621D01*
X63603997Y-58112477D01*
X63617498Y-58253864D01*
X63590619Y-58393328D01*
X63544400Y-58485273D01*
X63546521Y-58486498D01*
X63404881Y-58731825D01*
X63404881Y-58731826D01*
X63404879Y-58731830D01*
X63340429Y-58896043D01*
X63308204Y-58978152D01*
X63294945Y-59036244D01*
X63249323Y-59236128D01*
X63229549Y-59500000D01*
X63249323Y-59763872D01*
X63308205Y-60021850D01*
X63404879Y-60268170D01*
X63404881Y-60268173D01*
X63404881Y-60268174D01*
X63546521Y-60513502D01*
X63544162Y-60514863D01*
X63593944Y-60616485D01*
X63617962Y-60756470D01*
X63601568Y-60897551D01*
X63546091Y-61028298D01*
X63540095Y-61037626D01*
X63404881Y-61271825D01*
X63404881Y-61271826D01*
X63404879Y-61271830D01*
X63356449Y-61395227D01*
X63308204Y-61518152D01*
X63249324Y-61776123D01*
X63249323Y-61776128D01*
X63229549Y-62040000D01*
X63249323Y-62303872D01*
X63308205Y-62561850D01*
X63404879Y-62808170D01*
X63404881Y-62808173D01*
X63404881Y-62808174D01*
X63546521Y-63053502D01*
X63544162Y-63054863D01*
X63593944Y-63156485D01*
X63617962Y-63296470D01*
X63601568Y-63437551D01*
X63546091Y-63568298D01*
X63540095Y-63577626D01*
X63404881Y-63811825D01*
X63404881Y-63811826D01*
X63404879Y-63811830D01*
X63340429Y-63976043D01*
X63308204Y-64058152D01*
X63249324Y-64316123D01*
X63249323Y-64316128D01*
X63229549Y-64580000D01*
X63249323Y-64843872D01*
X63308205Y-65101850D01*
X63404879Y-65348170D01*
X63404881Y-65348173D01*
X63404881Y-65348174D01*
X63546521Y-65593502D01*
X63544162Y-65594863D01*
X63593944Y-65696485D01*
X63617962Y-65836470D01*
X63601568Y-65977551D01*
X63546091Y-66108298D01*
X63540095Y-66117626D01*
X63404881Y-66351825D01*
X63404881Y-66351826D01*
X63308204Y-66598153D01*
X63308201Y-66598160D01*
X63254363Y-66834039D01*
X63203374Y-66966601D01*
X63117102Y-67079428D01*
X63002538Y-67163378D01*
X62868964Y-67211652D01*
X62727199Y-67220338D01*
X62588730Y-67188733D01*
X62464774Y-67119397D01*
X62415029Y-67075845D01*
X51277222Y-55938036D01*
X51277219Y-55938033D01*
X51111615Y-55817715D01*
X51111612Y-55817713D01*
X51111611Y-55817713D01*
X51014979Y-55768477D01*
X51011885Y-55766900D01*
X50929220Y-55724780D01*
X50929218Y-55724779D01*
X50851415Y-55699500D01*
X50817490Y-55688477D01*
X50817486Y-55688475D01*
X50734536Y-55661523D01*
X50734534Y-55661522D01*
X50532352Y-55629500D01*
X47225210Y-55629500D01*
X47084625Y-55609287D01*
X46955430Y-55550286D01*
X46944113Y-55542793D01*
X46733721Y-55399350D01*
X46495719Y-55284735D01*
X46243293Y-55206870D01*
X46063414Y-55179758D01*
X45982081Y-55167500D01*
X45717919Y-55167500D01*
X45644233Y-55178606D01*
X45456706Y-55206870D01*
X45204280Y-55284735D01*
X44966277Y-55399350D01*
X44882847Y-55456232D01*
X44755304Y-55518724D01*
X44615321Y-55542753D01*
X44474239Y-55526370D01*
X44386391Y-55489103D01*
X44384989Y-55492015D01*
X43955537Y-55285202D01*
X43703177Y-55207359D01*
X43442040Y-55168000D01*
X43177960Y-55168000D01*
X42916817Y-55207360D01*
X42664476Y-55285196D01*
X42664460Y-55285202D01*
X42235009Y-55492014D01*
X42233595Y-55489079D01*
X42146281Y-55526231D01*
X42005216Y-55542767D01*
X41865207Y-55518890D01*
X41737597Y-55456535D01*
X41737147Y-55456229D01*
X41653722Y-55399350D01*
X41415719Y-55284735D01*
X41163293Y-55206870D01*
X40983414Y-55179758D01*
X40902081Y-55167500D01*
X40637919Y-55167500D01*
X40564233Y-55178606D01*
X40376706Y-55206870D01*
X40124280Y-55284735D01*
X39886277Y-55399350D01*
X39802847Y-55456232D01*
X39675304Y-55518724D01*
X39535321Y-55542753D01*
X39394239Y-55526370D01*
X39306391Y-55489103D01*
X39304989Y-55492015D01*
X38875537Y-55285202D01*
X38623177Y-55207359D01*
X38362040Y-55168000D01*
X38097960Y-55168000D01*
X37836817Y-55207360D01*
X37584476Y-55285196D01*
X37584466Y-55285200D01*
X37387269Y-55380163D01*
X38229999Y-56222894D01*
X38249655Y-56222894D01*
X38285173Y-56196305D01*
X38418248Y-56146669D01*
X38559916Y-56136536D01*
X38698701Y-56166726D01*
X38823358Y-56234793D01*
X38923789Y-56335223D01*
X38991858Y-56459880D01*
X39022049Y-56598664D01*
X39021924Y-56671577D01*
X39021695Y-56674631D01*
X38991027Y-56813311D01*
X38922530Y-56937732D01*
X38876939Y-56990164D01*
X38583553Y-57283552D01*
X38583552Y-57283554D01*
X37387269Y-58479834D01*
X37584460Y-58574796D01*
X37584472Y-58574801D01*
X37836819Y-58652640D01*
X38097960Y-58692000D01*
X38362040Y-58692000D01*
X38623181Y-58652639D01*
X38673413Y-58637145D01*
X38813709Y-58615020D01*
X38954556Y-58633318D01*
X39084542Y-58690556D01*
X39193137Y-58782096D01*
X39271543Y-58900524D01*
X39313409Y-59036244D01*
X39319500Y-59113974D01*
X39319500Y-93634622D01*
X39299287Y-93775207D01*
X39240286Y-93904402D01*
X39173346Y-93987468D01*
X38557468Y-94603346D01*
X38443767Y-94688462D01*
X38310692Y-94738096D01*
X38204622Y-94749500D01*
X35691969Y-94749500D01*
X35572582Y-94760114D01*
X35376953Y-94816090D01*
X35376942Y-94816095D01*
X35196592Y-94910302D01*
X35196589Y-94910304D01*
X35038891Y-95038889D01*
X35038889Y-95038891D01*
X34910304Y-95196589D01*
X34910302Y-95196592D01*
X34816095Y-95376942D01*
X34816090Y-95376953D01*
X34760114Y-95572581D01*
X34760114Y-95572582D01*
X34749500Y-95691963D01*
X34749500Y-95691969D01*
X34749500Y-95691970D01*
X34749500Y-99308030D01*
X34760114Y-99427417D01*
X34816090Y-99623046D01*
X34816095Y-99623057D01*
X34910302Y-99803407D01*
X34910304Y-99803410D01*
X35038889Y-99961108D01*
X35038891Y-99961110D01*
X35196589Y-100089695D01*
X35196593Y-100089698D01*
X35376951Y-100183909D01*
X35572582Y-100239886D01*
X35691963Y-100250500D01*
X39308036Y-100250499D01*
X39427418Y-100239886D01*
X39623049Y-100183909D01*
X39803407Y-100089698D01*
X39961109Y-99961109D01*
X40089698Y-99803407D01*
X40183909Y-99623049D01*
X40239886Y-99427418D01*
X40250500Y-99308037D01*
X40250499Y-97378712D01*
X44294500Y-97378712D01*
X44294500Y-97621287D01*
X44326160Y-97861781D01*
X44326161Y-97861787D01*
X44388946Y-98096101D01*
X44388947Y-98096104D01*
X44481775Y-98320211D01*
X44603061Y-98530284D01*
X44603066Y-98530293D01*
X44750728Y-98722730D01*
X44750739Y-98722742D01*
X44922257Y-98894260D01*
X44922269Y-98894271D01*
X45114706Y-99041933D01*
X45114709Y-99041935D01*
X45114711Y-99041936D01*
X45324788Y-99163224D01*
X45548900Y-99256054D01*
X45783211Y-99318838D01*
X45783215Y-99318838D01*
X45783218Y-99318839D01*
X46023712Y-99350500D01*
X46266288Y-99350500D01*
X46506781Y-99318839D01*
X46506779Y-99318839D01*
X46506789Y-99318838D01*
X46741100Y-99256054D01*
X46965212Y-99163224D01*
X47175289Y-99041936D01*
X47367738Y-98894265D01*
X47539265Y-98722738D01*
X47686936Y-98530289D01*
X47808224Y-98320212D01*
X47901054Y-98096100D01*
X47963838Y-97861789D01*
X47995500Y-97621288D01*
X47995500Y-97378712D01*
X99904500Y-97378712D01*
X99904500Y-97621287D01*
X99936160Y-97861781D01*
X99936161Y-97861787D01*
X99998946Y-98096101D01*
X99998947Y-98096104D01*
X100091775Y-98320211D01*
X100213061Y-98530284D01*
X100213066Y-98530293D01*
X100360728Y-98722730D01*
X100360739Y-98722742D01*
X100532257Y-98894260D01*
X100532269Y-98894271D01*
X100724706Y-99041933D01*
X100724709Y-99041935D01*
X100724711Y-99041936D01*
X100934788Y-99163224D01*
X101158900Y-99256054D01*
X101393211Y-99318838D01*
X101393215Y-99318838D01*
X101393218Y-99318839D01*
X101633712Y-99350500D01*
X101876288Y-99350500D01*
X102116781Y-99318839D01*
X102116779Y-99318839D01*
X102116789Y-99318838D01*
X102351100Y-99256054D01*
X102575212Y-99163224D01*
X102785289Y-99041936D01*
X102977738Y-98894265D01*
X103149265Y-98722738D01*
X103296936Y-98530289D01*
X103418224Y-98320212D01*
X103511054Y-98096100D01*
X103573838Y-97861789D01*
X103605500Y-97621288D01*
X103605500Y-97500000D01*
X106744974Y-97500000D01*
X106765061Y-97832083D01*
X106765062Y-97832089D01*
X106825029Y-98159319D01*
X106924003Y-98476937D01*
X106924008Y-98476951D01*
X107060541Y-98780315D01*
X107060546Y-98780325D01*
X107230849Y-99062041D01*
X107230850Y-99062041D01*
X108532252Y-97760639D01*
X108538429Y-97791689D01*
X108613811Y-97973678D01*
X108723249Y-98137463D01*
X108862537Y-98276751D01*
X109026322Y-98386189D01*
X109208311Y-98461571D01*
X109239358Y-98467746D01*
X107937956Y-99769148D01*
X108219666Y-99939448D01*
X108219681Y-99939456D01*
X108523047Y-100075991D01*
X108523062Y-100075996D01*
X108840680Y-100174970D01*
X109167910Y-100234937D01*
X109167916Y-100234938D01*
X109500000Y-100255025D01*
X109832083Y-100234938D01*
X109832089Y-100234937D01*
X110159319Y-100174970D01*
X110476937Y-100075996D01*
X110476944Y-100075994D01*
X110780326Y-99939452D01*
X110780339Y-99939445D01*
X111062041Y-99769149D01*
X111062042Y-99769147D01*
X109760641Y-98467746D01*
X109791689Y-98461571D01*
X109973678Y-98386189D01*
X110137463Y-98276751D01*
X110276751Y-98137463D01*
X110386189Y-97973678D01*
X110461571Y-97791689D01*
X110467746Y-97760640D01*
X111769147Y-99062042D01*
X111769149Y-99062041D01*
X111939445Y-98780339D01*
X111939452Y-98780326D01*
X112075994Y-98476944D01*
X112075996Y-98476937D01*
X112174970Y-98159319D01*
X112234937Y-97832089D01*
X112234938Y-97832083D01*
X112255025Y-97500000D01*
X112234938Y-97167916D01*
X112234937Y-97167910D01*
X112174970Y-96840680D01*
X112075996Y-96523062D01*
X112075991Y-96523047D01*
X111939456Y-96219681D01*
X111939448Y-96219666D01*
X111769148Y-95937957D01*
X111769148Y-95937956D01*
X110467746Y-97239358D01*
X110461571Y-97208311D01*
X110386189Y-97026322D01*
X110276751Y-96862537D01*
X110137463Y-96723249D01*
X109973678Y-96613811D01*
X109791689Y-96538429D01*
X109760640Y-96532253D01*
X111062041Y-95230850D01*
X111062041Y-95230849D01*
X110780325Y-95060546D01*
X110780315Y-95060541D01*
X110476951Y-94924008D01*
X110476937Y-94924003D01*
X110159319Y-94825029D01*
X109832089Y-94765062D01*
X109832083Y-94765061D01*
X109500000Y-94744974D01*
X109167916Y-94765061D01*
X109167910Y-94765062D01*
X108840680Y-94825029D01*
X108523062Y-94924003D01*
X108523048Y-94924008D01*
X108219678Y-95060544D01*
X108219674Y-95060546D01*
X107937957Y-95230849D01*
X107937957Y-95230850D01*
X109239359Y-96532253D01*
X109208311Y-96538429D01*
X109026322Y-96613811D01*
X108862537Y-96723249D01*
X108723249Y-96862537D01*
X108613811Y-97026322D01*
X108538429Y-97208311D01*
X108532253Y-97239359D01*
X107230850Y-95937957D01*
X107230849Y-95937957D01*
X107060546Y-96219674D01*
X107060544Y-96219678D01*
X106924008Y-96523048D01*
X106924003Y-96523062D01*
X106825029Y-96840680D01*
X106765062Y-97167910D01*
X106765061Y-97167916D01*
X106744974Y-97500000D01*
X103605500Y-97500000D01*
X103605500Y-97378712D01*
X103573838Y-97138211D01*
X103511054Y-96903900D01*
X103484867Y-96840680D01*
X103418224Y-96679788D01*
X103327730Y-96523048D01*
X103296936Y-96469711D01*
X103296935Y-96469709D01*
X103296933Y-96469706D01*
X103149271Y-96277269D01*
X103149260Y-96277257D01*
X102977742Y-96105739D01*
X102977730Y-96105728D01*
X102785293Y-95958066D01*
X102785284Y-95958061D01*
X102575211Y-95836775D01*
X102351104Y-95743947D01*
X102351101Y-95743946D01*
X102116787Y-95681161D01*
X102116781Y-95681160D01*
X101876288Y-95649500D01*
X101633712Y-95649500D01*
X101393218Y-95681160D01*
X101393212Y-95681161D01*
X101158898Y-95743946D01*
X101158895Y-95743947D01*
X100934788Y-95836775D01*
X100724715Y-95958061D01*
X100724706Y-95958066D01*
X100532269Y-96105728D01*
X100532257Y-96105739D01*
X100360739Y-96277257D01*
X100360728Y-96277269D01*
X100213066Y-96469706D01*
X100213061Y-96469715D01*
X100091775Y-96679788D01*
X99998947Y-96903895D01*
X99998946Y-96903898D01*
X99936161Y-97138212D01*
X99936160Y-97138218D01*
X99904500Y-97378712D01*
X47995500Y-97378712D01*
X47963838Y-97138211D01*
X47901054Y-96903900D01*
X47874867Y-96840680D01*
X47808224Y-96679788D01*
X47717730Y-96523048D01*
X47686936Y-96469711D01*
X47686935Y-96469709D01*
X47686933Y-96469706D01*
X47539271Y-96277269D01*
X47539260Y-96277257D01*
X47367742Y-96105739D01*
X47367730Y-96105728D01*
X47175293Y-95958066D01*
X47175284Y-95958061D01*
X46965211Y-95836775D01*
X46741104Y-95743947D01*
X46741101Y-95743946D01*
X46506787Y-95681161D01*
X46506781Y-95681160D01*
X46266288Y-95649500D01*
X46023712Y-95649500D01*
X45783218Y-95681160D01*
X45783212Y-95681161D01*
X45548898Y-95743946D01*
X45548895Y-95743947D01*
X45324788Y-95836775D01*
X45114715Y-95958061D01*
X45114706Y-95958066D01*
X44922269Y-96105728D01*
X44922257Y-96105739D01*
X44750739Y-96277257D01*
X44750728Y-96277269D01*
X44603066Y-96469706D01*
X44603061Y-96469715D01*
X44481775Y-96679788D01*
X44388947Y-96903895D01*
X44388946Y-96903898D01*
X44326161Y-97138212D01*
X44326160Y-97138218D01*
X44294500Y-97378712D01*
X40250499Y-97378712D01*
X40250499Y-96795375D01*
X40270712Y-96654792D01*
X40329713Y-96525596D01*
X40396648Y-96442535D01*
X41151038Y-95688145D01*
X41264736Y-95603032D01*
X41312938Y-95579972D01*
X41326794Y-95574232D01*
X41326799Y-95574231D01*
X41530228Y-95470579D01*
X41714937Y-95336379D01*
X41876379Y-95174937D01*
X42010579Y-94990228D01*
X42114231Y-94786799D01*
X42184784Y-94569660D01*
X42197872Y-94487025D01*
X42220500Y-94344161D01*
X42220500Y-59113974D01*
X42240713Y-58973389D01*
X42299714Y-58844194D01*
X42392724Y-58736855D01*
X42512208Y-58660068D01*
X42648485Y-58620053D01*
X42790515Y-58620053D01*
X42866587Y-58637145D01*
X42916818Y-58652639D01*
X43177960Y-58692000D01*
X43442040Y-58692000D01*
X43703180Y-58652640D01*
X43955533Y-58574799D01*
X44384988Y-58367983D01*
X44386412Y-58370940D01*
X44473254Y-58333891D01*
X44614302Y-58317220D01*
X44754334Y-58340962D01*
X44882004Y-58403194D01*
X44882847Y-58403767D01*
X44966279Y-58460650D01*
X45204281Y-58575265D01*
X45378842Y-58629110D01*
X45456706Y-58653129D01*
X45522010Y-58662971D01*
X45717919Y-58692500D01*
X45717922Y-58692500D01*
X45982078Y-58692500D01*
X45982081Y-58692500D01*
X46243293Y-58653129D01*
X46495719Y-58575265D01*
X46733721Y-58460650D01*
X46944113Y-58317207D01*
X47071656Y-58254714D01*
X47211639Y-58230685D01*
X47225210Y-58230500D01*
X49684623Y-58230500D01*
X49825208Y-58250713D01*
X49954403Y-58309714D01*
X50037469Y-58376654D01*
X62155505Y-70494689D01*
X62155513Y-70494698D01*
X62312774Y-70651960D01*
X62312778Y-70651963D01*
X62312781Y-70651966D01*
X62406278Y-70719895D01*
X62478385Y-70772284D01*
X62478387Y-70772285D01*
X62478390Y-70772287D01*
X62660782Y-70865221D01*
X62855466Y-70928477D01*
X63057648Y-70960500D01*
X63057649Y-70960500D01*
X63262352Y-70960500D01*
X63619464Y-70960500D01*
X63760049Y-70980713D01*
X63889244Y-71039714D01*
X63900561Y-71047207D01*
X64114775Y-71193256D01*
X64114783Y-71193261D01*
X64332222Y-71297972D01*
X64353182Y-71308066D01*
X64606038Y-71386062D01*
X64867694Y-71425500D01*
X64867697Y-71425500D01*
X65132303Y-71425500D01*
X65132306Y-71425500D01*
X65393962Y-71386062D01*
X65646818Y-71308066D01*
X65885226Y-71193256D01*
X65885232Y-71193252D01*
X65885237Y-71193249D01*
X65999857Y-71115101D01*
X66103858Y-71044194D01*
X66297832Y-70864213D01*
X66462815Y-70657331D01*
X66595121Y-70428170D01*
X66691795Y-70181850D01*
X66750677Y-69923872D01*
X66770451Y-69660000D01*
X66750677Y-69396128D01*
X66691795Y-69138150D01*
X66595121Y-68891830D01*
X66462815Y-68662669D01*
X66453479Y-68646498D01*
X66455840Y-68645134D01*
X66406070Y-68543561D01*
X66382039Y-68403579D01*
X66398419Y-68262496D01*
X66453883Y-68131744D01*
X66459897Y-68122383D01*
X66462810Y-68117336D01*
X66462815Y-68117331D01*
X66595121Y-67888170D01*
X66691795Y-67641850D01*
X66750677Y-67383872D01*
X66770451Y-67120000D01*
X66750677Y-66856128D01*
X66691795Y-66598150D01*
X66595121Y-66351830D01*
X66462815Y-66122669D01*
X66453479Y-66106498D01*
X66455840Y-66105134D01*
X66406070Y-66003561D01*
X66382039Y-65863579D01*
X66398419Y-65722496D01*
X66453883Y-65591744D01*
X66459897Y-65582383D01*
X66462810Y-65577336D01*
X66462815Y-65577331D01*
X66595121Y-65348170D01*
X66691795Y-65101850D01*
X66750677Y-64843872D01*
X66770451Y-64580000D01*
X66750677Y-64316128D01*
X66691795Y-64058150D01*
X66595121Y-63811830D01*
X66462815Y-63582669D01*
X66453479Y-63566498D01*
X66455840Y-63565134D01*
X66406070Y-63463561D01*
X66382039Y-63323579D01*
X66398419Y-63182496D01*
X66453883Y-63051744D01*
X66459897Y-63042383D01*
X66462810Y-63037336D01*
X66462815Y-63037331D01*
X66595121Y-62808170D01*
X66691795Y-62561850D01*
X66750677Y-62303872D01*
X66770451Y-62040000D01*
X66750677Y-61776128D01*
X66691795Y-61518150D01*
X66595121Y-61271830D01*
X66514510Y-61132208D01*
X66453479Y-61026498D01*
X66455840Y-61025134D01*
X66406070Y-60923561D01*
X66382039Y-60783579D01*
X66398419Y-60642496D01*
X66453883Y-60511744D01*
X66459897Y-60502383D01*
X66462810Y-60497336D01*
X66462815Y-60497331D01*
X66595121Y-60268170D01*
X66691795Y-60021850D01*
X66750677Y-59763872D01*
X66770451Y-59500000D01*
X66750677Y-59236128D01*
X66691795Y-58978150D01*
X66595121Y-58731830D01*
X66504728Y-58575264D01*
X66453479Y-58486498D01*
X66455856Y-58485125D01*
X66406143Y-58383654D01*
X66382119Y-58243670D01*
X66398507Y-58102588D01*
X66448791Y-57980613D01*
X66594669Y-57727949D01*
X66691314Y-57481704D01*
X66750178Y-57223802D01*
X66750179Y-57223800D01*
X66769948Y-56960000D01*
X66750179Y-56696199D01*
X66750178Y-56696197D01*
X66691314Y-56438298D01*
X66594666Y-56192044D01*
X66594665Y-56192041D01*
X66448790Y-55939381D01*
X66396002Y-55807525D01*
X66382500Y-55666138D01*
X66409379Y-55526675D01*
X66455607Y-55434730D01*
X66453479Y-55433502D01*
X66539099Y-55285203D01*
X66595121Y-55188170D01*
X66691795Y-54941850D01*
X66750677Y-54683872D01*
X66770451Y-54420000D01*
X66750677Y-54156128D01*
X66691795Y-53898150D01*
X66595121Y-53651830D01*
X66466981Y-53429885D01*
X66453479Y-53406498D01*
X66455840Y-53405134D01*
X66406070Y-53303561D01*
X66382039Y-53163579D01*
X66398419Y-53022496D01*
X66453883Y-52891744D01*
X66459897Y-52882383D01*
X66462810Y-52877336D01*
X66462815Y-52877331D01*
X66595121Y-52648170D01*
X66691795Y-52401850D01*
X66750677Y-52143872D01*
X66770451Y-51880000D01*
X66750677Y-51616128D01*
X66691795Y-51358150D01*
X66595121Y-51111830D01*
X66462815Y-50882669D01*
X66453479Y-50866498D01*
X66455840Y-50865134D01*
X66406070Y-50763561D01*
X66382039Y-50623579D01*
X66398419Y-50482496D01*
X66453883Y-50351744D01*
X66459897Y-50342383D01*
X66462810Y-50337336D01*
X66462815Y-50337331D01*
X66595121Y-50108170D01*
X66691795Y-49861850D01*
X66750677Y-49603872D01*
X66770451Y-49340000D01*
X66750677Y-49076128D01*
X66691795Y-48818150D01*
X66595121Y-48571830D01*
X66462815Y-48342669D01*
X66453479Y-48326498D01*
X66455840Y-48325134D01*
X66406070Y-48223561D01*
X66382039Y-48083579D01*
X66398419Y-47942496D01*
X66453883Y-47811744D01*
X66459897Y-47802383D01*
X66462810Y-47797336D01*
X66462815Y-47797331D01*
X66595121Y-47568170D01*
X66691795Y-47321850D01*
X66750677Y-47063872D01*
X66770451Y-46800000D01*
X66750677Y-46536128D01*
X66691795Y-46278150D01*
X66595121Y-46031830D01*
X66462815Y-45802669D01*
X66453479Y-45786498D01*
X66455840Y-45785134D01*
X66406070Y-45683561D01*
X66382039Y-45543579D01*
X66398419Y-45402496D01*
X66453883Y-45271744D01*
X66459897Y-45262383D01*
X66462810Y-45257336D01*
X66462815Y-45257331D01*
X66595121Y-45028170D01*
X66691795Y-44781850D01*
X66750677Y-44523872D01*
X66770451Y-44260000D01*
X66750677Y-43996128D01*
X66691795Y-43738150D01*
X66595121Y-43491830D01*
X66462815Y-43262669D01*
X66453479Y-43246498D01*
X66455840Y-43245134D01*
X66406070Y-43143561D01*
X66382039Y-43003579D01*
X66398419Y-42862496D01*
X66453883Y-42731744D01*
X66459897Y-42722383D01*
X66462810Y-42717336D01*
X66462815Y-42717331D01*
X66595121Y-42488170D01*
X66691795Y-42241850D01*
X66750677Y-41983872D01*
X66770451Y-41720000D01*
X66750677Y-41456128D01*
X66691795Y-41198150D01*
X66595121Y-40951830D01*
X66462815Y-40722669D01*
X66453479Y-40706498D01*
X66455840Y-40705134D01*
X66406070Y-40603561D01*
X66382039Y-40463579D01*
X66398419Y-40322496D01*
X66453883Y-40191744D01*
X66459897Y-40182383D01*
X66462810Y-40177336D01*
X66462815Y-40177331D01*
X66595121Y-39948170D01*
X66691795Y-39701850D01*
X66750677Y-39443872D01*
X66770451Y-39180000D01*
X66750677Y-38916128D01*
X66691795Y-38658150D01*
X66595121Y-38411830D01*
X66462815Y-38182669D01*
X66453479Y-38166498D01*
X66455840Y-38165134D01*
X66406070Y-38063561D01*
X66382039Y-37923579D01*
X66398419Y-37782496D01*
X66453883Y-37651744D01*
X66459897Y-37642383D01*
X66462810Y-37637336D01*
X66462815Y-37637331D01*
X66595121Y-37408170D01*
X66691795Y-37161850D01*
X66750677Y-36903872D01*
X66770451Y-36640000D01*
X66750677Y-36376128D01*
X66691795Y-36118150D01*
X66595121Y-35871830D01*
X66462815Y-35642669D01*
X66453479Y-35626498D01*
X66455840Y-35625134D01*
X66406070Y-35523561D01*
X66382039Y-35383579D01*
X66398419Y-35242496D01*
X66453883Y-35111744D01*
X66459897Y-35102383D01*
X66462810Y-35097336D01*
X66462815Y-35097331D01*
X66595121Y-34868170D01*
X66691795Y-34621850D01*
X66750677Y-34363872D01*
X66770451Y-34100000D01*
X66750677Y-33836128D01*
X66691795Y-33578150D01*
X66595121Y-33331830D01*
X66462815Y-33102669D01*
X66453479Y-33086498D01*
X66455840Y-33085134D01*
X66406070Y-32983561D01*
X66382039Y-32843579D01*
X66398419Y-32702496D01*
X66453883Y-32571744D01*
X66459897Y-32562383D01*
X66462810Y-32557336D01*
X66462815Y-32557331D01*
X66595121Y-32328170D01*
X66691795Y-32081850D01*
X66736049Y-31887960D01*
X66787039Y-31755399D01*
X66873310Y-31642573D01*
X66987873Y-31558621D01*
X67121448Y-31510347D01*
X67222538Y-31500000D01*
X88177462Y-31500000D01*
X88318047Y-31520213D01*
X88447242Y-31579214D01*
X88554581Y-31672224D01*
X88631368Y-31791708D01*
X88663950Y-31887960D01*
X88708205Y-32081850D01*
X88804879Y-32328170D01*
X88804881Y-32328173D01*
X88804881Y-32328174D01*
X88946521Y-32573502D01*
X88944162Y-32574863D01*
X88993944Y-32676485D01*
X89017962Y-32816470D01*
X89001568Y-32957551D01*
X88946091Y-33088298D01*
X88940095Y-33097626D01*
X88804881Y-33331825D01*
X88804881Y-33331826D01*
X88804879Y-33331830D01*
X88772283Y-33414883D01*
X88708204Y-33578152D01*
X88649324Y-33836123D01*
X88649323Y-33836128D01*
X88629549Y-34100000D01*
X88649323Y-34363872D01*
X88708205Y-34621850D01*
X88804879Y-34868170D01*
X88804881Y-34868173D01*
X88804881Y-34868174D01*
X88946521Y-35113502D01*
X88944162Y-35114863D01*
X88993944Y-35216485D01*
X89017962Y-35356470D01*
X89001568Y-35497551D01*
X88946091Y-35628298D01*
X88940095Y-35637626D01*
X88804881Y-35871825D01*
X88804881Y-35871826D01*
X88708204Y-36118152D01*
X88657455Y-36340500D01*
X88649323Y-36376128D01*
X88629549Y-36640000D01*
X88649323Y-36903872D01*
X88649324Y-36903875D01*
X88649324Y-36903876D01*
X88671086Y-36999224D01*
X88708205Y-37161850D01*
X88804879Y-37408170D01*
X88804881Y-37408173D01*
X88804881Y-37408174D01*
X88946521Y-37653502D01*
X88944141Y-37654875D01*
X88993848Y-37756322D01*
X89017877Y-37896305D01*
X89001496Y-38037387D01*
X88951210Y-38159375D01*
X88805330Y-38412048D01*
X88805330Y-38412049D01*
X88708685Y-38658295D01*
X88649821Y-38916197D01*
X88649820Y-38916199D01*
X88630051Y-39180000D01*
X88649820Y-39443800D01*
X88649821Y-39443802D01*
X88708686Y-39701705D01*
X88708686Y-39701707D01*
X88805327Y-39947945D01*
X88805333Y-39947956D01*
X88951209Y-40200621D01*
X89003997Y-40332477D01*
X89017498Y-40473864D01*
X88990619Y-40613328D01*
X88944400Y-40705273D01*
X88946521Y-40706498D01*
X88804881Y-40951825D01*
X88804881Y-40951826D01*
X88708204Y-41198152D01*
X88649324Y-41456123D01*
X88649323Y-41456128D01*
X88629549Y-41720000D01*
X88649323Y-41983872D01*
X88708205Y-42241850D01*
X88804879Y-42488170D01*
X88804881Y-42488173D01*
X88804881Y-42488174D01*
X88946521Y-42733502D01*
X88944162Y-42734863D01*
X88993944Y-42836485D01*
X89017962Y-42976470D01*
X89001568Y-43117551D01*
X88946091Y-43248298D01*
X88940095Y-43257626D01*
X88804881Y-43491825D01*
X88804881Y-43491826D01*
X88804879Y-43491830D01*
X88740429Y-43656043D01*
X88708204Y-43738152D01*
X88649324Y-43996123D01*
X88649323Y-43996128D01*
X88629549Y-44260000D01*
X88649323Y-44523872D01*
X88649324Y-44523876D01*
X88707095Y-44776989D01*
X88708205Y-44781850D01*
X88804879Y-45028170D01*
X88804881Y-45028173D01*
X88804881Y-45028174D01*
X88946521Y-45273502D01*
X88944162Y-45274863D01*
X88993944Y-45376485D01*
X89017962Y-45516470D01*
X89001568Y-45657551D01*
X88946091Y-45788298D01*
X88940095Y-45797626D01*
X88804881Y-46031825D01*
X88804881Y-46031826D01*
X88804879Y-46031830D01*
X88740429Y-46196043D01*
X88708204Y-46278152D01*
X88649324Y-46536123D01*
X88649323Y-46536128D01*
X88629549Y-46800000D01*
X88649323Y-47063872D01*
X88649324Y-47063876D01*
X88703586Y-47301616D01*
X88708205Y-47321850D01*
X88804879Y-47568170D01*
X88804881Y-47568173D01*
X88804881Y-47568174D01*
X88946521Y-47813502D01*
X88944162Y-47814863D01*
X88993944Y-47916485D01*
X89017962Y-48056470D01*
X89001568Y-48197551D01*
X88946091Y-48328298D01*
X88940095Y-48337626D01*
X88804881Y-48571825D01*
X88804881Y-48571826D01*
X88804879Y-48571830D01*
X88785574Y-48621019D01*
X88708204Y-48818152D01*
X88649324Y-49076123D01*
X88649323Y-49076128D01*
X88629549Y-49340000D01*
X88649323Y-49603872D01*
X88708205Y-49861850D01*
X88804879Y-50108170D01*
X88804881Y-50108173D01*
X88804881Y-50108174D01*
X88946521Y-50353502D01*
X88944162Y-50354863D01*
X88993944Y-50456485D01*
X89017962Y-50596470D01*
X89001568Y-50737551D01*
X88946091Y-50868298D01*
X88940095Y-50877626D01*
X88804881Y-51111825D01*
X88804881Y-51111826D01*
X88708204Y-51358152D01*
X88666999Y-51538684D01*
X88649323Y-51616128D01*
X88629549Y-51880000D01*
X88649323Y-52143872D01*
X88708205Y-52401850D01*
X88804879Y-52648170D01*
X88804881Y-52648173D01*
X88804881Y-52648174D01*
X88946521Y-52893502D01*
X88944162Y-52894863D01*
X88993944Y-52996485D01*
X89017962Y-53136470D01*
X89001568Y-53277551D01*
X88946091Y-53408298D01*
X88940095Y-53417626D01*
X88804881Y-53651825D01*
X88804881Y-53651826D01*
X88708204Y-53898152D01*
X88679388Y-54024403D01*
X88649323Y-54156128D01*
X88629549Y-54420000D01*
X88649323Y-54683872D01*
X88708205Y-54941850D01*
X88804879Y-55188170D01*
X88804881Y-55188173D01*
X88804881Y-55188174D01*
X88946521Y-55433502D01*
X88944162Y-55434863D01*
X88993944Y-55536485D01*
X89017962Y-55676470D01*
X89001568Y-55817551D01*
X88946091Y-55948298D01*
X88940095Y-55957626D01*
X88804881Y-56191825D01*
X88804881Y-56191826D01*
X88804879Y-56191830D01*
X88748601Y-56335223D01*
X88708204Y-56438152D01*
X88649324Y-56696123D01*
X88649323Y-56696128D01*
X88629549Y-56960000D01*
X88649323Y-57223872D01*
X88649324Y-57223876D01*
X88708171Y-57481704D01*
X88708205Y-57481850D01*
X88804879Y-57728170D01*
X88804881Y-57728173D01*
X88804881Y-57728174D01*
X88946521Y-57973502D01*
X88944162Y-57974863D01*
X88993944Y-58076485D01*
X89017962Y-58216470D01*
X89001568Y-58357551D01*
X88946091Y-58488298D01*
X88940095Y-58497626D01*
X88804881Y-58731825D01*
X88804881Y-58731826D01*
X88804879Y-58731830D01*
X88740429Y-58896043D01*
X88708204Y-58978152D01*
X88694945Y-59036244D01*
X88649323Y-59236128D01*
X88629549Y-59500000D01*
X88649323Y-59763872D01*
X88708205Y-60021850D01*
X88804879Y-60268170D01*
X88804881Y-60268173D01*
X88804881Y-60268174D01*
X88946521Y-60513502D01*
X88944162Y-60514863D01*
X88993944Y-60616485D01*
X89017962Y-60756470D01*
X89001568Y-60897551D01*
X88946091Y-61028298D01*
X88940095Y-61037626D01*
X88804881Y-61271825D01*
X88804881Y-61271826D01*
X88804879Y-61271830D01*
X88756449Y-61395227D01*
X88708204Y-61518152D01*
X88649324Y-61776123D01*
X88649323Y-61776128D01*
X88629549Y-62040000D01*
X88649323Y-62303872D01*
X88708205Y-62561850D01*
X88804879Y-62808170D01*
X88804881Y-62808173D01*
X88804881Y-62808174D01*
X88946521Y-63053502D01*
X88944162Y-63054863D01*
X88993944Y-63156485D01*
X89017962Y-63296470D01*
X89001568Y-63437551D01*
X88946091Y-63568298D01*
X88940095Y-63577626D01*
X88804881Y-63811825D01*
X88804881Y-63811826D01*
X88804879Y-63811830D01*
X88740429Y-63976043D01*
X88708204Y-64058152D01*
X88649324Y-64316123D01*
X88649323Y-64316128D01*
X88629549Y-64580000D01*
X88649323Y-64843872D01*
X88708205Y-65101850D01*
X88804879Y-65348170D01*
X88804881Y-65348173D01*
X88804881Y-65348174D01*
X88946521Y-65593502D01*
X88944162Y-65594863D01*
X88993944Y-65696485D01*
X89017962Y-65836470D01*
X89001568Y-65977551D01*
X88946091Y-66108298D01*
X88940095Y-66117626D01*
X88804881Y-66351825D01*
X88804881Y-66351826D01*
X88708204Y-66598152D01*
X88654365Y-66834039D01*
X88649323Y-66856128D01*
X88629549Y-67120000D01*
X88649323Y-67383872D01*
X88708205Y-67641850D01*
X88804879Y-67888170D01*
X88804881Y-67888173D01*
X88804881Y-67888174D01*
X88946521Y-68133502D01*
X88944162Y-68134863D01*
X88993944Y-68236485D01*
X89017962Y-68376470D01*
X89001568Y-68517551D01*
X88946091Y-68648298D01*
X88940095Y-68657626D01*
X88804881Y-68891825D01*
X88804881Y-68891826D01*
X88708204Y-69138152D01*
X88649324Y-69396123D01*
X88649323Y-69396128D01*
X88629549Y-69660000D01*
X88649323Y-69923872D01*
X88708205Y-70181850D01*
X88804879Y-70428170D01*
X88804881Y-70428173D01*
X88804881Y-70428174D01*
X88937179Y-70657321D01*
X88937185Y-70657331D01*
X89028859Y-70772287D01*
X89102170Y-70864215D01*
X89296140Y-71044193D01*
X89514775Y-71193256D01*
X89514783Y-71193261D01*
X89732222Y-71297972D01*
X89753182Y-71308066D01*
X90006038Y-71386062D01*
X90267694Y-71425500D01*
X90267697Y-71425500D01*
X90532303Y-71425500D01*
X90532306Y-71425500D01*
X90793962Y-71386062D01*
X91046818Y-71308066D01*
X91285226Y-71193256D01*
X91285232Y-71193252D01*
X91285237Y-71193249D01*
X91399857Y-71115101D01*
X91503858Y-71044194D01*
X91697832Y-70864213D01*
X91862815Y-70657331D01*
X91995121Y-70428170D01*
X92091795Y-70181850D01*
X92150677Y-69923872D01*
X92170451Y-69660000D01*
X92150677Y-69396128D01*
X92091795Y-69138150D01*
X91995121Y-68891830D01*
X91862815Y-68662669D01*
X91853479Y-68646498D01*
X91855840Y-68645134D01*
X91806070Y-68543561D01*
X91782039Y-68403579D01*
X91798419Y-68262496D01*
X91853883Y-68131744D01*
X91859897Y-68122383D01*
X91862810Y-68117336D01*
X91862815Y-68117331D01*
X91995121Y-67888170D01*
X92091795Y-67641850D01*
X92150677Y-67383872D01*
X92170451Y-67120000D01*
X92150677Y-66856128D01*
X92091795Y-66598150D01*
X91995121Y-66351830D01*
X91862815Y-66122669D01*
X91853479Y-66106498D01*
X91855840Y-66105134D01*
X91806070Y-66003561D01*
X91782039Y-65863579D01*
X91798419Y-65722496D01*
X91853883Y-65591744D01*
X91859897Y-65582383D01*
X91862810Y-65577336D01*
X91862815Y-65577331D01*
X91995121Y-65348170D01*
X92091795Y-65101850D01*
X92150677Y-64843872D01*
X92170451Y-64580000D01*
X92150677Y-64316128D01*
X92091795Y-64058150D01*
X91995121Y-63811830D01*
X91862815Y-63582669D01*
X91853479Y-63566498D01*
X91855840Y-63565134D01*
X91806070Y-63463561D01*
X91782039Y-63323579D01*
X91798419Y-63182496D01*
X91853883Y-63051744D01*
X91859897Y-63042383D01*
X91862810Y-63037336D01*
X91862815Y-63037331D01*
X91891299Y-62987996D01*
X102625000Y-62987996D01*
X102635609Y-63107329D01*
X102691558Y-63302862D01*
X102691560Y-63302868D01*
X102785720Y-63483127D01*
X102785722Y-63483131D01*
X102914246Y-63640753D01*
X103071868Y-63769277D01*
X103071872Y-63769279D01*
X103252131Y-63863439D01*
X103252137Y-63863441D01*
X103447670Y-63919390D01*
X103567003Y-63930000D01*
X103975000Y-63930000D01*
X104975000Y-63930000D01*
X105382997Y-63930000D01*
X105502329Y-63919390D01*
X105697862Y-63863441D01*
X105697868Y-63863439D01*
X105878127Y-63769279D01*
X105878131Y-63769277D01*
X106035753Y-63640753D01*
X106164277Y-63483131D01*
X106164279Y-63483127D01*
X106258439Y-63302868D01*
X106258441Y-63302862D01*
X106314390Y-63107329D01*
X106325000Y-62987996D01*
X106325000Y-62580000D01*
X104975000Y-62580000D01*
X104975000Y-63930000D01*
X103975000Y-63930000D01*
X103975000Y-62580000D01*
X102625000Y-62580000D01*
X102625000Y-62987996D01*
X91891299Y-62987996D01*
X91995121Y-62808170D01*
X92091795Y-62561850D01*
X92150677Y-62303872D01*
X92170451Y-62040000D01*
X92150677Y-61776128D01*
X92091795Y-61518150D01*
X91995121Y-61271830D01*
X91914510Y-61132208D01*
X91853479Y-61026498D01*
X91855840Y-61025134D01*
X91806070Y-60923561D01*
X91782039Y-60783579D01*
X91798419Y-60642496D01*
X91853883Y-60511744D01*
X91859897Y-60502383D01*
X91862810Y-60497336D01*
X91862815Y-60497331D01*
X91995121Y-60268170D01*
X92091795Y-60021850D01*
X92150677Y-59763872D01*
X92170451Y-59500000D01*
X92150677Y-59236128D01*
X92091795Y-58978150D01*
X91995121Y-58731830D01*
X91904728Y-58575264D01*
X91853479Y-58486498D01*
X91855840Y-58485134D01*
X91806070Y-58383561D01*
X91782039Y-58243579D01*
X91798419Y-58102496D01*
X91853883Y-57971744D01*
X91859894Y-57962389D01*
X91862812Y-57957334D01*
X91862815Y-57957331D01*
X91883674Y-57921200D01*
X91971470Y-57809559D01*
X92087163Y-57727172D01*
X92221382Y-57680717D01*
X92363251Y-57673958D01*
X92501278Y-57707442D01*
X92624280Y-57778456D01*
X92668668Y-57817853D01*
X95182196Y-60331380D01*
X95267312Y-60445081D01*
X95315839Y-60573187D01*
X95360760Y-60770000D01*
X95370493Y-60812640D01*
X95387957Y-60857137D01*
X95458794Y-61037626D01*
X95463606Y-61049885D01*
X95463608Y-61049891D01*
X95566193Y-61227574D01*
X95591041Y-61270612D01*
X95749950Y-61469877D01*
X95749952Y-61469879D01*
X95749953Y-61469880D01*
X95936775Y-61643225D01*
X95936776Y-61643226D01*
X95936778Y-61643227D01*
X95936783Y-61643232D01*
X96147366Y-61786805D01*
X96376996Y-61897389D01*
X96620542Y-61972513D01*
X96872565Y-62010500D01*
X96872570Y-62010500D01*
X97127430Y-62010500D01*
X97127435Y-62010500D01*
X97379458Y-61972513D01*
X97623004Y-61897389D01*
X97852634Y-61786805D01*
X97984050Y-61697206D01*
X98111593Y-61634714D01*
X98251576Y-61610685D01*
X98265147Y-61610500D01*
X100292352Y-61610500D01*
X100494535Y-61578477D01*
X100591876Y-61546848D01*
X100689219Y-61515220D01*
X100797263Y-61460169D01*
X100871611Y-61422287D01*
X101037219Y-61301966D01*
X101352533Y-60986651D01*
X101466231Y-60901539D01*
X101599306Y-60851904D01*
X101705377Y-60840500D01*
X102126000Y-60840500D01*
X102266585Y-60860713D01*
X102395780Y-60919714D01*
X102503119Y-61012724D01*
X102579906Y-61132208D01*
X102619921Y-61268485D01*
X102625000Y-61339500D01*
X102625000Y-61580000D01*
X104409174Y-61580000D01*
X104282007Y-61614075D01*
X104167993Y-61679901D01*
X104074901Y-61772993D01*
X104009075Y-61887007D01*
X103975000Y-62014174D01*
X103975000Y-62145826D01*
X104009075Y-62272993D01*
X104074901Y-62387007D01*
X104167993Y-62480099D01*
X104282007Y-62545925D01*
X104409174Y-62580000D01*
X104540826Y-62580000D01*
X104667993Y-62545925D01*
X104782007Y-62480099D01*
X104875099Y-62387007D01*
X104940925Y-62272993D01*
X104975000Y-62145826D01*
X104975000Y-62014174D01*
X104940925Y-61887007D01*
X104875099Y-61772993D01*
X104782007Y-61679901D01*
X104667993Y-61614075D01*
X104540826Y-61580000D01*
X106325000Y-61580000D01*
X106325000Y-61172003D01*
X106314390Y-61052670D01*
X106258441Y-60857137D01*
X106258438Y-60857128D01*
X106186550Y-60719507D01*
X106139375Y-60585540D01*
X106131855Y-60443709D01*
X106161305Y-60314088D01*
X106162570Y-60310696D01*
X106162574Y-60310689D01*
X106255077Y-60062678D01*
X106311343Y-59804026D01*
X106330227Y-59540000D01*
X106311343Y-59275974D01*
X106255077Y-59017322D01*
X106162574Y-58769311D01*
X106162574Y-58769310D01*
X106056360Y-58574796D01*
X106035716Y-58536989D01*
X106035714Y-58536987D01*
X106027175Y-58521348D01*
X106028710Y-58520509D01*
X105978514Y-58410609D01*
X105958294Y-58270026D01*
X105978500Y-58129440D01*
X106028706Y-58019488D01*
X106027175Y-58018652D01*
X106162574Y-57770689D01*
X106162575Y-57770686D01*
X106178431Y-57728174D01*
X106255077Y-57522678D01*
X106311343Y-57264026D01*
X106330227Y-57000000D01*
X106311343Y-56735974D01*
X106255077Y-56477322D01*
X106233991Y-56420788D01*
X106203800Y-56282004D01*
X106213933Y-56140335D01*
X106263568Y-56007260D01*
X106348683Y-55893559D01*
X106462384Y-55808444D01*
X106595460Y-55758810D01*
X106737128Y-55748677D01*
X106875912Y-55778868D01*
X107000569Y-55846936D01*
X107054375Y-55893560D01*
X109495505Y-58334689D01*
X109495512Y-58334697D01*
X109508034Y-58347219D01*
X109652781Y-58491966D01*
X109729953Y-58548034D01*
X109729954Y-58548035D01*
X109794633Y-58595027D01*
X109818390Y-58612287D01*
X110000782Y-58705221D01*
X110195466Y-58768477D01*
X110397648Y-58800500D01*
X110397649Y-58800500D01*
X115102352Y-58800500D01*
X115304535Y-58768477D01*
X115417322Y-58731830D01*
X115499219Y-58705220D01*
X115612526Y-58647487D01*
X115681611Y-58612287D01*
X115847219Y-58491966D01*
X118818776Y-55520406D01*
X118818789Y-55520396D01*
X118991960Y-55347226D01*
X118991961Y-55347223D01*
X118991966Y-55347219D01*
X119112287Y-55181610D01*
X119121435Y-55163657D01*
X119205221Y-54999218D01*
X119268477Y-54804534D01*
X119300500Y-54602351D01*
X119300500Y-54397648D01*
X119300500Y-50397648D01*
X119300500Y-38245376D01*
X119320713Y-38104791D01*
X119379714Y-37975596D01*
X119446654Y-37892530D01*
X119818769Y-37520415D01*
X119818782Y-37520403D01*
X119991960Y-37347226D01*
X119991961Y-37347224D01*
X119991966Y-37347219D01*
X120112287Y-37181610D01*
X120204414Y-37000802D01*
X120204419Y-37000793D01*
X120205218Y-36999224D01*
X120205219Y-36999221D01*
X120205221Y-36999218D01*
X120268477Y-36804534D01*
X120289474Y-36671964D01*
X120300500Y-36602352D01*
X120300500Y-20897648D01*
X120268477Y-20695465D01*
X120214623Y-20529720D01*
X120211279Y-20519427D01*
X120207012Y-20504300D01*
X120205220Y-20500784D01*
X120205220Y-20500782D01*
X120205220Y-20500781D01*
X120158753Y-20409585D01*
X120143533Y-20379714D01*
X120112287Y-20318388D01*
X119991966Y-20152780D01*
X118691532Y-18852346D01*
X118606416Y-18738645D01*
X118556782Y-18605570D01*
X118546649Y-18463902D01*
X118576840Y-18325117D01*
X118644908Y-18200460D01*
X118745338Y-18100030D01*
X118869995Y-18031962D01*
X119008780Y-18001771D01*
X119044378Y-18000500D01*
X124000500Y-18000500D01*
X124141085Y-18020713D01*
X124270280Y-18079714D01*
X124377619Y-18172724D01*
X124454406Y-18292208D01*
X124494421Y-18428485D01*
X124499500Y-18499500D01*
X124499500Y-116500500D01*
X124479287Y-116641085D01*
X124420286Y-116770280D01*
X124327276Y-116877619D01*
X124207792Y-116954406D01*
X124071515Y-116994421D01*
X124000500Y-116999500D01*
X25999500Y-116999500D01*
X25858915Y-116979287D01*
X25729720Y-116920286D01*
X25622381Y-116827276D01*
X25545594Y-116707792D01*
X25505579Y-116571515D01*
X25500500Y-116500500D01*
X25500500Y-79885838D01*
X28049500Y-79885838D01*
X28049500Y-110114161D01*
X28085216Y-110339664D01*
X28155765Y-110556790D01*
X28155771Y-110556803D01*
X28259420Y-110760227D01*
X28259422Y-110760229D01*
X28315033Y-110836772D01*
X28315036Y-110836775D01*
X28315037Y-110836776D01*
X28393620Y-110944937D01*
X28393624Y-110944942D01*
X28393625Y-110944943D01*
X30069970Y-112621287D01*
X31555063Y-114106380D01*
X31662041Y-114184103D01*
X31662045Y-114184107D01*
X31662046Y-114184107D01*
X31739768Y-114240577D01*
X31739772Y-114240579D01*
X31943201Y-114344231D01*
X31943206Y-114344232D01*
X31943209Y-114344234D01*
X32160336Y-114414783D01*
X32160338Y-114414783D01*
X32160340Y-114414784D01*
X32216088Y-114423613D01*
X32385839Y-114450500D01*
X32385843Y-114450500D01*
X102114161Y-114450500D01*
X102257025Y-114427872D01*
X102339660Y-114414784D01*
X102339662Y-114414783D01*
X102339664Y-114414783D01*
X102556790Y-114344234D01*
X102556790Y-114344233D01*
X102556799Y-114344231D01*
X102760228Y-114240579D01*
X102837944Y-114184112D01*
X102837953Y-114184108D01*
X102916862Y-114126777D01*
X102944937Y-114106380D01*
X104672605Y-112378712D01*
X119149500Y-112378712D01*
X119149500Y-112621287D01*
X119181160Y-112861781D01*
X119181161Y-112861787D01*
X119243946Y-113096101D01*
X119243947Y-113096104D01*
X119336775Y-113320211D01*
X119458061Y-113530284D01*
X119458066Y-113530293D01*
X119605728Y-113722730D01*
X119605739Y-113722742D01*
X119777257Y-113894260D01*
X119777269Y-113894271D01*
X119969706Y-114041933D01*
X119969709Y-114041935D01*
X119969711Y-114041936D01*
X120179788Y-114163224D01*
X120403900Y-114256054D01*
X120638211Y-114318838D01*
X120638215Y-114318838D01*
X120638218Y-114318839D01*
X120878712Y-114350500D01*
X121121288Y-114350500D01*
X121361781Y-114318839D01*
X121361779Y-114318839D01*
X121361789Y-114318838D01*
X121596100Y-114256054D01*
X121820212Y-114163224D01*
X122030289Y-114041936D01*
X122222738Y-113894265D01*
X122394265Y-113722738D01*
X122541936Y-113530289D01*
X122663224Y-113320212D01*
X122756054Y-113096100D01*
X122818838Y-112861789D01*
X122850500Y-112621288D01*
X122850500Y-112378712D01*
X122818838Y-112138211D01*
X122756054Y-111903900D01*
X122663224Y-111679788D01*
X122541936Y-111469711D01*
X122541935Y-111469709D01*
X122541933Y-111469706D01*
X122394271Y-111277269D01*
X122394260Y-111277257D01*
X122222742Y-111105739D01*
X122222730Y-111105728D01*
X122030293Y-110958066D01*
X122030284Y-110958061D01*
X121820211Y-110836775D01*
X121596104Y-110743947D01*
X121596101Y-110743946D01*
X121361787Y-110681161D01*
X121361781Y-110681160D01*
X121121288Y-110649500D01*
X120878712Y-110649500D01*
X120638218Y-110681160D01*
X120638212Y-110681161D01*
X120403898Y-110743946D01*
X120403895Y-110743947D01*
X120179788Y-110836775D01*
X119969715Y-110958061D01*
X119969706Y-110958066D01*
X119777269Y-111105728D01*
X119777257Y-111105739D01*
X119605739Y-111277257D01*
X119605728Y-111277269D01*
X119458066Y-111469706D01*
X119458061Y-111469715D01*
X119336775Y-111679788D01*
X119243947Y-111903895D01*
X119243946Y-111903898D01*
X119181161Y-112138212D01*
X119181160Y-112138218D01*
X119149500Y-112378712D01*
X104672605Y-112378712D01*
X116106379Y-100944937D01*
X116240579Y-100760228D01*
X116344231Y-100556799D01*
X116414784Y-100339660D01*
X116428905Y-100250500D01*
X116450500Y-100114157D01*
X116450500Y-81738890D01*
X116470713Y-81598305D01*
X116529714Y-81469110D01*
X116622724Y-81361771D01*
X116742208Y-81284984D01*
X116878485Y-81244969D01*
X116905273Y-81241854D01*
X116927418Y-81239886D01*
X117123049Y-81183909D01*
X117303407Y-81089698D01*
X117461109Y-80961109D01*
X117589698Y-80803407D01*
X117683909Y-80623049D01*
X117739886Y-80427418D01*
X117739886Y-80427417D01*
X117739887Y-80427414D01*
X117743539Y-80407756D01*
X117789088Y-80273228D01*
X117870694Y-80156982D01*
X117981745Y-80068436D01*
X118113243Y-80014763D01*
X118254536Y-80000312D01*
X118394177Y-80026253D01*
X118520853Y-80090484D01*
X118624302Y-80187803D01*
X118675318Y-80265726D01*
X118764077Y-80433665D01*
X118919833Y-80644708D01*
X119105291Y-80830166D01*
X119316335Y-80985923D01*
X119316336Y-80985924D01*
X119548223Y-81108480D01*
X119795796Y-81195109D01*
X120053507Y-81243872D01*
X120162624Y-81249999D01*
X120499999Y-81249998D01*
X120500000Y-81249998D01*
X120500000Y-79565826D01*
X120534075Y-79692993D01*
X120599901Y-79807007D01*
X120692993Y-79900099D01*
X120807007Y-79965925D01*
X120934174Y-80000000D01*
X121065826Y-80000000D01*
X121192993Y-79965925D01*
X121307007Y-79900099D01*
X121400099Y-79807007D01*
X121465925Y-79692993D01*
X121500000Y-79565826D01*
X121500000Y-81249999D01*
X121837389Y-81249999D01*
X121946483Y-81243872D01*
X121946499Y-81243871D01*
X122204203Y-81195109D01*
X122451776Y-81108480D01*
X122683663Y-80985924D01*
X122683664Y-80985923D01*
X122894708Y-80830166D01*
X123080166Y-80644708D01*
X123235923Y-80433664D01*
X123235924Y-80433663D01*
X123358480Y-80201776D01*
X123445109Y-79954203D01*
X123493872Y-79696492D01*
X123500000Y-79587374D01*
X123500000Y-79000000D01*
X121500000Y-79000000D01*
X121500000Y-78000000D01*
X123499999Y-78000000D01*
X123499999Y-77412611D01*
X123493872Y-77303516D01*
X123493871Y-77303500D01*
X123445109Y-77045796D01*
X123358480Y-76798223D01*
X123235924Y-76566336D01*
X123235923Y-76566335D01*
X123080166Y-76355291D01*
X122894708Y-76169833D01*
X122683664Y-76014076D01*
X122683663Y-76014075D01*
X122451776Y-75891519D01*
X122204203Y-75804890D01*
X121946492Y-75756127D01*
X121837375Y-75750000D01*
X121500000Y-75750000D01*
X121500000Y-77434174D01*
X121465925Y-77307007D01*
X121400099Y-77192993D01*
X121307007Y-77099901D01*
X121192993Y-77034075D01*
X121065826Y-77000000D01*
X120934174Y-77000000D01*
X120807007Y-77034075D01*
X120692993Y-77099901D01*
X120599901Y-77192993D01*
X120534075Y-77307007D01*
X120500000Y-77434174D01*
X120500000Y-75618619D01*
X120520213Y-75478034D01*
X120579214Y-75348839D01*
X120659888Y-75255736D01*
X120664054Y-75241283D01*
X120684896Y-75183655D01*
X120684898Y-75183648D01*
X120739670Y-74914716D01*
X120749999Y-74753338D01*
X120750000Y-74753335D01*
X120750000Y-74300000D01*
X119065826Y-74300000D01*
X119192993Y-74265925D01*
X119307007Y-74200099D01*
X119400099Y-74107007D01*
X119465925Y-73992993D01*
X119500000Y-73865826D01*
X119500000Y-73734174D01*
X119465925Y-73607007D01*
X119400099Y-73492993D01*
X119307007Y-73399901D01*
X119192993Y-73334075D01*
X119065826Y-73300000D01*
X120749999Y-73300000D01*
X120749999Y-72846668D01*
X120749998Y-72846656D01*
X120739670Y-72685286D01*
X120739669Y-72685279D01*
X120684898Y-72416349D01*
X120684893Y-72416332D01*
X120591549Y-72158243D01*
X120591546Y-72158236D01*
X120461613Y-71916478D01*
X120461613Y-71916477D01*
X120297866Y-71696216D01*
X120103783Y-71502133D01*
X119883521Y-71338386D01*
X119641763Y-71208453D01*
X119641756Y-71208450D01*
X119383667Y-71115106D01*
X119383652Y-71115102D01*
X119114716Y-71060329D01*
X118953338Y-71050000D01*
X118500000Y-71050000D01*
X118500000Y-73300000D01*
X117500000Y-73300000D01*
X117500000Y-71050000D01*
X117046668Y-71050000D01*
X117046656Y-71050001D01*
X116885286Y-71060329D01*
X116885279Y-71060330D01*
X116616349Y-71115101D01*
X116616332Y-71115106D01*
X116358243Y-71208450D01*
X116358236Y-71208453D01*
X116116478Y-71338386D01*
X116116477Y-71338386D01*
X115896216Y-71502133D01*
X115702133Y-71696216D01*
X115538386Y-71916477D01*
X115538386Y-71916478D01*
X115408453Y-72158236D01*
X115408450Y-72158243D01*
X115315106Y-72416332D01*
X115315102Y-72416347D01*
X115260329Y-72685283D01*
X115250000Y-72846661D01*
X115250000Y-73300000D01*
X116934174Y-73300000D01*
X116807007Y-73334075D01*
X116692993Y-73399901D01*
X116599901Y-73492993D01*
X116534075Y-73607007D01*
X116500000Y-73734174D01*
X116500000Y-73865826D01*
X116534075Y-73992993D01*
X116599901Y-74107007D01*
X116692993Y-74200099D01*
X116807007Y-74265925D01*
X116934174Y-74300000D01*
X115250001Y-74300000D01*
X115250001Y-74753343D01*
X115260329Y-74914713D01*
X115260330Y-74914720D01*
X115308435Y-75150917D01*
X115316685Y-75292707D01*
X115284653Y-75431078D01*
X115214935Y-75554820D01*
X115113179Y-75653907D01*
X114987629Y-75720313D01*
X114848456Y-75748658D01*
X114819473Y-75749500D01*
X113191969Y-75749500D01*
X113072582Y-75760114D01*
X112876953Y-75816090D01*
X112876942Y-75816095D01*
X112696592Y-75910302D01*
X112696589Y-75910304D01*
X112538891Y-76038889D01*
X112538889Y-76038891D01*
X112410304Y-76196589D01*
X112410302Y-76196592D01*
X112316095Y-76376942D01*
X112316090Y-76376953D01*
X112261901Y-76566335D01*
X112260114Y-76572582D01*
X112249500Y-76691963D01*
X112249500Y-76691969D01*
X112249500Y-76691970D01*
X112249500Y-80308030D01*
X112249501Y-80308036D01*
X112260114Y-80427418D01*
X112267910Y-80454663D01*
X112316090Y-80623046D01*
X112316095Y-80623057D01*
X112410302Y-80803407D01*
X112410304Y-80803410D01*
X112538889Y-80961108D01*
X112538891Y-80961110D01*
X112696589Y-81089695D01*
X112696593Y-81089698D01*
X112876951Y-81183909D01*
X113072582Y-81239886D01*
X113094687Y-81241851D01*
X113232928Y-81274433D01*
X113356391Y-81344643D01*
X113455073Y-81446792D01*
X113520979Y-81572606D01*
X113548769Y-81711891D01*
X113549500Y-81738891D01*
X113549500Y-99192491D01*
X113529287Y-99333076D01*
X113470286Y-99462271D01*
X113403346Y-99545337D01*
X101545337Y-111403346D01*
X101431636Y-111488462D01*
X101298561Y-111538096D01*
X101192491Y-111549500D01*
X33307509Y-111549500D01*
X33166924Y-111529287D01*
X33037729Y-111470286D01*
X32954663Y-111403346D01*
X31096654Y-109545337D01*
X31011538Y-109431636D01*
X30961904Y-109298561D01*
X30950500Y-109192491D01*
X30950500Y-80807509D01*
X30970713Y-80666924D01*
X31029714Y-80537729D01*
X31096654Y-80454663D01*
X34256375Y-77294942D01*
X34256380Y-77294937D01*
X34390580Y-77110227D01*
X34494232Y-76906798D01*
X34564785Y-76689659D01*
X34600500Y-76464156D01*
X34600500Y-76235843D01*
X34600500Y-59113974D01*
X34620713Y-58973389D01*
X34679714Y-58844194D01*
X34772724Y-58736855D01*
X34892208Y-58660068D01*
X35028485Y-58620053D01*
X35170515Y-58620053D01*
X35246587Y-58637145D01*
X35296818Y-58652639D01*
X35557960Y-58692000D01*
X35822040Y-58692000D01*
X36083180Y-58652640D01*
X36335536Y-58574798D01*
X36532729Y-58479834D01*
X35336447Y-57283553D01*
X35043062Y-56990168D01*
X34960471Y-56879840D01*
X35309000Y-56879840D01*
X35309000Y-56980160D01*
X35334964Y-57077061D01*
X35385124Y-57163940D01*
X35456060Y-57234876D01*
X35542939Y-57285036D01*
X35639840Y-57311000D01*
X35740160Y-57311000D01*
X35837061Y-57285036D01*
X35923940Y-57234876D01*
X35994876Y-57163940D01*
X36045036Y-57077061D01*
X36071000Y-56980160D01*
X36071000Y-56929999D01*
X36397106Y-56929999D01*
X36397106Y-56930001D01*
X36959999Y-57492894D01*
X36960001Y-57492894D01*
X37522894Y-56930001D01*
X37522894Y-56929999D01*
X37472735Y-56879840D01*
X37849000Y-56879840D01*
X37849000Y-56980160D01*
X37874964Y-57077061D01*
X37925124Y-57163940D01*
X37996060Y-57234876D01*
X38082939Y-57285036D01*
X38179840Y-57311000D01*
X38280160Y-57311000D01*
X38377061Y-57285036D01*
X38463940Y-57234876D01*
X38534876Y-57163940D01*
X38585036Y-57077061D01*
X38611000Y-56980160D01*
X38611000Y-56879840D01*
X38585036Y-56782939D01*
X38534876Y-56696060D01*
X38463940Y-56625124D01*
X38377061Y-56574964D01*
X38280160Y-56549000D01*
X38179840Y-56549000D01*
X38082939Y-56574964D01*
X37996060Y-56625124D01*
X37925124Y-56696060D01*
X37874964Y-56782939D01*
X37849000Y-56879840D01*
X37472735Y-56879840D01*
X36960001Y-56367106D01*
X36959999Y-56367106D01*
X36397106Y-56929999D01*
X36071000Y-56929999D01*
X36071000Y-56879840D01*
X36045036Y-56782939D01*
X35994876Y-56696060D01*
X35923940Y-56625124D01*
X35837061Y-56574964D01*
X35740160Y-56549000D01*
X35639840Y-56549000D01*
X35542939Y-56574964D01*
X35456060Y-56625124D01*
X35385124Y-56696060D01*
X35334964Y-56782939D01*
X35309000Y-56879840D01*
X34960471Y-56879840D01*
X34957946Y-56876467D01*
X34908312Y-56743392D01*
X34898303Y-56674610D01*
X34898074Y-56671554D01*
X34907725Y-56529852D01*
X34956908Y-56396609D01*
X35041637Y-56282620D01*
X35155048Y-56197119D01*
X35287954Y-56147033D01*
X35429587Y-56136419D01*
X35568473Y-56166139D01*
X35673257Y-56222894D01*
X35690000Y-56222894D01*
X36532727Y-55380163D01*
X36335540Y-55285203D01*
X36083177Y-55207359D01*
X35822040Y-55168000D01*
X35557960Y-55168000D01*
X35296817Y-55207360D01*
X35044476Y-55285196D01*
X35044460Y-55285202D01*
X34615009Y-55492014D01*
X34613595Y-55489079D01*
X34526281Y-55526231D01*
X34385216Y-55542767D01*
X34245207Y-55518890D01*
X34117597Y-55456535D01*
X34117147Y-55456229D01*
X34033722Y-55399350D01*
X33795719Y-55284735D01*
X33543293Y-55206870D01*
X33363414Y-55179758D01*
X33282081Y-55167500D01*
X33017919Y-55167500D01*
X32944233Y-55178606D01*
X32756706Y-55206870D01*
X32504280Y-55284735D01*
X32266278Y-55399350D01*
X32048016Y-55548158D01*
X31854375Y-55727831D01*
X31854365Y-55727842D01*
X31689674Y-55934359D01*
X31689672Y-55934361D01*
X31557588Y-56163138D01*
X31461081Y-56409032D01*
X31402300Y-56666568D01*
X31402299Y-56666573D01*
X31382558Y-56930000D01*
X31402299Y-57193426D01*
X31402300Y-57193431D01*
X31461081Y-57450967D01*
X31557589Y-57696862D01*
X31557590Y-57696864D01*
X31575666Y-57728173D01*
X31632647Y-57826867D01*
X31685434Y-57958723D01*
X31699500Y-58076366D01*
X31699500Y-75542490D01*
X31679287Y-75683075D01*
X31620286Y-75812270D01*
X31553346Y-75895336D01*
X28393627Y-79055054D01*
X28393625Y-79055057D01*
X28393622Y-79055060D01*
X28393620Y-79055063D01*
X28315893Y-79162045D01*
X28265877Y-79230885D01*
X28259418Y-79239776D01*
X28155769Y-79443200D01*
X28155765Y-79443209D01*
X28085216Y-79660335D01*
X28049500Y-79885838D01*
X25500500Y-79885838D01*
X25500500Y-21878712D01*
X27649500Y-21878712D01*
X27649500Y-22121287D01*
X27681160Y-22361781D01*
X27681161Y-22361787D01*
X27743946Y-22596101D01*
X27743947Y-22596104D01*
X27836775Y-22820211D01*
X27958061Y-23030284D01*
X27958066Y-23030293D01*
X28105728Y-23222730D01*
X28105739Y-23222742D01*
X28277257Y-23394260D01*
X28277269Y-23394271D01*
X28469706Y-23541933D01*
X28469709Y-23541935D01*
X28469711Y-23541936D01*
X28679788Y-23663224D01*
X28903900Y-23756054D01*
X29138211Y-23818838D01*
X29138215Y-23818838D01*
X29138218Y-23818839D01*
X29378712Y-23850500D01*
X29621288Y-23850500D01*
X29861781Y-23818839D01*
X29861779Y-23818839D01*
X29861789Y-23818838D01*
X30096100Y-23756054D01*
X30320212Y-23663224D01*
X30530289Y-23541936D01*
X30722738Y-23394265D01*
X30894265Y-23222738D01*
X31041936Y-23030289D01*
X31163224Y-22820212D01*
X31256054Y-22596100D01*
X31318838Y-22361789D01*
X31350500Y-22121288D01*
X31350500Y-21878712D01*
X31318838Y-21638211D01*
X31256054Y-21403900D01*
X31163224Y-21179788D01*
X31041936Y-20969711D01*
X31041935Y-20969709D01*
X31041933Y-20969706D01*
X30894271Y-20777269D01*
X30894260Y-20777257D01*
X30722742Y-20605739D01*
X30722730Y-20605728D01*
X30530293Y-20458066D01*
X30530284Y-20458061D01*
X30320211Y-20336775D01*
X30096104Y-20243947D01*
X30096101Y-20243946D01*
X29861787Y-20181161D01*
X29861781Y-20181160D01*
X29621288Y-20149500D01*
X29378712Y-20149500D01*
X29138218Y-20181160D01*
X29138212Y-20181161D01*
X28903898Y-20243946D01*
X28903895Y-20243947D01*
X28679788Y-20336775D01*
X28469715Y-20458061D01*
X28469706Y-20458066D01*
X28277269Y-20605728D01*
X28277257Y-20605739D01*
X28105739Y-20777257D01*
X28105728Y-20777269D01*
X27958066Y-20969706D01*
X27958061Y-20969715D01*
X27836775Y-21179788D01*
X27743947Y-21403895D01*
X27743946Y-21403898D01*
X27681161Y-21638212D01*
X27681160Y-21638218D01*
X27649500Y-21878712D01*
X25500500Y-21878712D01*
X25500500Y-18499500D01*
X25520713Y-18358915D01*
X25579714Y-18229720D01*
X25672724Y-18122381D01*
X25792208Y-18045594D01*
X25928485Y-18005579D01*
X25999500Y-18000500D01*
X61501000Y-18000500D01*
X61641585Y-18020713D01*
G37*
%TD.AperFunction*%
%TA.AperFunction,Conductor*%
G36*
X112791085Y-36360713D02*
G01*
X112920280Y-36419714D01*
X113027619Y-36512724D01*
X113104406Y-36632208D01*
X113144421Y-36768485D01*
X113149500Y-36839500D01*
X113149500Y-38488030D01*
X113160114Y-38607417D01*
X113216090Y-38803046D01*
X113216095Y-38803057D01*
X113310302Y-38983407D01*
X113310304Y-38983410D01*
X113438889Y-39141108D01*
X113438891Y-39141110D01*
X113568931Y-39247143D01*
X113596593Y-39269698D01*
X113776951Y-39363909D01*
X113972582Y-39419886D01*
X114091963Y-39430500D01*
X115908036Y-39430499D01*
X116027418Y-39419886D01*
X116063229Y-39409639D01*
X116203944Y-39390398D01*
X116344385Y-39411581D01*
X116473170Y-39471472D01*
X116579865Y-39565221D01*
X116655826Y-39685231D01*
X116694899Y-39821781D01*
X116699500Y-39889386D01*
X116699500Y-53754623D01*
X116679287Y-53895208D01*
X116620286Y-54024403D01*
X116553346Y-54107469D01*
X114607469Y-56053346D01*
X114493768Y-56138462D01*
X114360693Y-56188096D01*
X114254623Y-56199500D01*
X111245376Y-56199500D01*
X111104791Y-56179287D01*
X110975596Y-56120286D01*
X110892530Y-56053346D01*
X106946654Y-52107469D01*
X106861538Y-51993768D01*
X106811904Y-51860693D01*
X106800500Y-51754623D01*
X106800500Y-49074925D01*
X106820713Y-48934340D01*
X106879714Y-48805145D01*
X106972724Y-48697806D01*
X107092208Y-48621019D01*
X107228485Y-48581004D01*
X107370515Y-48581004D01*
X107506792Y-48621019D01*
X107626276Y-48697806D01*
X107719286Y-48805145D01*
X107767038Y-48900542D01*
X107837882Y-49090483D01*
X107964702Y-49322737D01*
X108123294Y-49534590D01*
X108310409Y-49721705D01*
X108522262Y-49880297D01*
X108754516Y-50007117D01*
X109002460Y-50099595D01*
X109025000Y-50104498D01*
X110025000Y-50104498D01*
X110047539Y-50099595D01*
X110295483Y-50007117D01*
X110527737Y-49880297D01*
X110739590Y-49721705D01*
X110926705Y-49534590D01*
X111085297Y-49322737D01*
X111212117Y-49090483D01*
X111304597Y-48842534D01*
X111309500Y-48820000D01*
X110025000Y-48820000D01*
X110025000Y-50104498D01*
X109025000Y-50104498D01*
X109025000Y-48819000D01*
X109045213Y-48678415D01*
X109093515Y-48572646D01*
X109124901Y-48627007D01*
X109217993Y-48720099D01*
X109332007Y-48785925D01*
X109459174Y-48820000D01*
X109590826Y-48820000D01*
X109717993Y-48785925D01*
X109832007Y-48720099D01*
X109925099Y-48627007D01*
X109990925Y-48512993D01*
X110025000Y-48385826D01*
X110025000Y-48254174D01*
X109990925Y-48127007D01*
X109925099Y-48012993D01*
X109832007Y-47919901D01*
X109779024Y-47889311D01*
X109816708Y-47865094D01*
X109952985Y-47825079D01*
X110024000Y-47820000D01*
X111309500Y-47820000D01*
X111309500Y-47819999D01*
X111304597Y-47797465D01*
X111212117Y-47549516D01*
X111076754Y-47301616D01*
X111078317Y-47300762D01*
X111028215Y-47191065D01*
X111007997Y-47050481D01*
X111028205Y-46909896D01*
X111078637Y-46799450D01*
X111077175Y-46798652D01*
X111113831Y-46731523D01*
X111212574Y-46550689D01*
X111305077Y-46302678D01*
X111361343Y-46044026D01*
X111380227Y-45780000D01*
X111361343Y-45515974D01*
X111305077Y-45257322D01*
X111225292Y-45043409D01*
X111212575Y-45009313D01*
X111212574Y-45009310D01*
X111088370Y-44781850D01*
X111085716Y-44776989D01*
X111085714Y-44776987D01*
X111077175Y-44761348D01*
X111078710Y-44760509D01*
X111028514Y-44650609D01*
X111008294Y-44510026D01*
X111028500Y-44369440D01*
X111078706Y-44259488D01*
X111077175Y-44258652D01*
X111212574Y-44010689D01*
X111212575Y-44010686D01*
X111218007Y-43996123D01*
X111305077Y-43762678D01*
X111361343Y-43504026D01*
X111380227Y-43240000D01*
X111361343Y-42975974D01*
X111305077Y-42717322D01*
X111219610Y-42488174D01*
X111211541Y-42466539D01*
X111181350Y-42327755D01*
X111191483Y-42186087D01*
X111236785Y-42061123D01*
X111308909Y-41923049D01*
X111364886Y-41727418D01*
X111375500Y-41608037D01*
X111375499Y-39791964D01*
X111364886Y-39672582D01*
X111308909Y-39476951D01*
X111214698Y-39296593D01*
X111192768Y-39269698D01*
X111086110Y-39138891D01*
X111086108Y-39138889D01*
X110928410Y-39010304D01*
X110928407Y-39010302D01*
X110748057Y-38916095D01*
X110748054Y-38916093D01*
X110748049Y-38916091D01*
X110552418Y-38860114D01*
X110433037Y-38849500D01*
X110433029Y-38849500D01*
X108616969Y-38849500D01*
X108497582Y-38860114D01*
X108301953Y-38916090D01*
X108301942Y-38916095D01*
X108121592Y-39010302D01*
X108121589Y-39010304D01*
X107963892Y-39138888D01*
X107901148Y-39215839D01*
X107796641Y-39312021D01*
X107669271Y-39374864D01*
X107529354Y-39399276D01*
X107514415Y-39399500D01*
X99142351Y-39399500D01*
X98937648Y-39399500D01*
X98905626Y-39404571D01*
X98735466Y-39431522D01*
X98638124Y-39463150D01*
X98638123Y-39463151D01*
X98595646Y-39476953D01*
X98540783Y-39494779D01*
X98540781Y-39494779D01*
X98540781Y-39494780D01*
X98464377Y-39533710D01*
X98464375Y-39533711D01*
X98358388Y-39587713D01*
X98358384Y-39587715D01*
X98192780Y-39708033D01*
X93002287Y-44898526D01*
X92888586Y-44983642D01*
X92755511Y-45033276D01*
X92613843Y-45043409D01*
X92475058Y-45013218D01*
X92350401Y-44945150D01*
X92249971Y-44844720D01*
X92181903Y-44720063D01*
X92151712Y-44581278D01*
X92151835Y-44508406D01*
X92170451Y-44260000D01*
X92150677Y-43996128D01*
X92091795Y-43738150D01*
X91995121Y-43491830D01*
X91862815Y-43262669D01*
X91853479Y-43246498D01*
X91855840Y-43245134D01*
X91806070Y-43143561D01*
X91782039Y-43003579D01*
X91798419Y-42862496D01*
X91853883Y-42731744D01*
X91859897Y-42722383D01*
X91862810Y-42717336D01*
X91862815Y-42717331D01*
X91995121Y-42488170D01*
X92091795Y-42241850D01*
X92150677Y-41983872D01*
X92170451Y-41720000D01*
X92150677Y-41456128D01*
X92091795Y-41198150D01*
X91995121Y-40951830D01*
X91862815Y-40722669D01*
X91853479Y-40706498D01*
X91855856Y-40705125D01*
X91806143Y-40603654D01*
X91782119Y-40463670D01*
X91798507Y-40322588D01*
X91848791Y-40200613D01*
X91994669Y-39947949D01*
X92091314Y-39701704D01*
X92150178Y-39443802D01*
X92150179Y-39443800D01*
X92169948Y-39180000D01*
X92150179Y-38916199D01*
X92150178Y-38916197D01*
X92091314Y-38658298D01*
X91994666Y-38412044D01*
X91994665Y-38412041D01*
X91848790Y-38159381D01*
X91796002Y-38027525D01*
X91782500Y-37886138D01*
X91809379Y-37746675D01*
X91855607Y-37654730D01*
X91853479Y-37653502D01*
X91946741Y-37491966D01*
X91995121Y-37408170D01*
X92091795Y-37161850D01*
X92150677Y-36903872D01*
X92151046Y-36898937D01*
X92152220Y-36893626D01*
X92153458Y-36885418D01*
X92154017Y-36885502D01*
X92181706Y-36760260D01*
X92250195Y-36635834D01*
X92295800Y-36583383D01*
X92392532Y-36486652D01*
X92506233Y-36401537D01*
X92639308Y-36351903D01*
X92745376Y-36340500D01*
X112650500Y-36340500D01*
X112791085Y-36360713D01*
G37*
%TD.AperFunction*%
%TA.AperFunction,Conductor*%
G36*
X116395208Y-20320713D02*
G01*
X116524403Y-20379714D01*
X116607469Y-20446654D01*
X117553346Y-21392531D01*
X117638462Y-21506232D01*
X117688096Y-21639307D01*
X117699500Y-21745377D01*
X117699500Y-29138047D01*
X117679287Y-29278632D01*
X117620286Y-29407827D01*
X117527276Y-29515166D01*
X117407792Y-29591953D01*
X117271515Y-29631968D01*
X117129485Y-29631968D01*
X116993208Y-29591953D01*
X116873724Y-29515166D01*
X116780714Y-29407827D01*
X116732963Y-29312431D01*
X116687119Y-29189520D01*
X116560297Y-28957262D01*
X116401705Y-28745409D01*
X116214590Y-28558294D01*
X116002737Y-28399702D01*
X115770483Y-28272882D01*
X115522534Y-28180402D01*
X115500000Y-28175499D01*
X115500000Y-29461000D01*
X115479787Y-29601585D01*
X115431484Y-29707353D01*
X115400099Y-29652993D01*
X115307007Y-29559901D01*
X115192993Y-29494075D01*
X115065826Y-29460000D01*
X114934174Y-29460000D01*
X114807007Y-29494075D01*
X114692993Y-29559901D01*
X114599901Y-29652993D01*
X114534075Y-29767007D01*
X114500000Y-29894174D01*
X114500000Y-30025826D01*
X114534075Y-30152993D01*
X114599901Y-30267007D01*
X114692993Y-30360099D01*
X114745975Y-30390688D01*
X114708292Y-30414906D01*
X114572015Y-30454921D01*
X114501000Y-30460000D01*
X113215500Y-30460000D01*
X113220403Y-30482538D01*
X113236657Y-30526116D01*
X113266848Y-30664900D01*
X113256717Y-30806569D01*
X113207083Y-30939644D01*
X113121967Y-31053345D01*
X113008267Y-31138461D01*
X112875192Y-31188096D01*
X112769120Y-31199500D01*
X111245377Y-31199500D01*
X111104792Y-31179287D01*
X110975597Y-31120286D01*
X110892531Y-31053346D01*
X109299185Y-29459999D01*
X113215499Y-29459999D01*
X113215500Y-29460000D01*
X114500000Y-29460000D01*
X114500000Y-28175500D01*
X114499999Y-28175499D01*
X114477465Y-28180402D01*
X114229516Y-28272882D01*
X113997262Y-28399702D01*
X113785409Y-28558294D01*
X113598294Y-28745409D01*
X113439702Y-28957262D01*
X113312882Y-29189516D01*
X113220402Y-29437465D01*
X113215499Y-29459999D01*
X109299185Y-29459999D01*
X107847222Y-28008036D01*
X107847219Y-28008033D01*
X107681615Y-27887715D01*
X107681612Y-27887713D01*
X107681611Y-27887713D01*
X107538471Y-27814780D01*
X107499219Y-27794780D01*
X107366088Y-27751523D01*
X107304535Y-27731523D01*
X107304533Y-27731522D01*
X107304531Y-27731522D01*
X107102352Y-27699500D01*
X106102351Y-27699500D01*
X105897648Y-27699500D01*
X105810165Y-27713356D01*
X105732104Y-27719500D01*
X92999000Y-27719500D01*
X92858415Y-27699287D01*
X92729220Y-27640286D01*
X92621881Y-27547276D01*
X92545094Y-27427792D01*
X92505079Y-27291515D01*
X92500000Y-27220500D01*
X92500000Y-20799500D01*
X92520213Y-20658915D01*
X92579214Y-20529720D01*
X92672224Y-20422381D01*
X92791708Y-20345594D01*
X92927985Y-20305579D01*
X92999000Y-20300500D01*
X116254623Y-20300500D01*
X116395208Y-20320713D01*
G37*
%TD.AperFunction*%
%TD*%
M02*
