%TF.GenerationSoftware,KiCad,Pcbnew,8.0.8*%
%TF.CreationDate,2025-02-21T17:49:15-05:00*%
%TF.ProjectId,linchenajuancarlos,6c696e63-6865-46e6-916a-75616e636172,rev?*%
%TF.SameCoordinates,Original*%
%TF.FileFunction,Soldermask,Top*%
%TF.FilePolarity,Negative*%
%FSLAX46Y46*%
G04 Gerber Fmt 4.6, Leading zero omitted, Abs format (unit mm)*
G04 Created by KiCad (PCBNEW 8.0.8) date 2025-02-21 17:49:15*
%MOMM*%
%LPD*%
G01*
G04 APERTURE LIST*
G04 Aperture macros list*
%AMRoundRect*
0 Rectangle with rounded corners*
0 $1 Rounding radius*
0 $2 $3 $4 $5 $6 $7 $8 $9 X,Y pos of 4 corners*
0 Add a 4 corners polygon primitive as box body*
4,1,4,$2,$3,$4,$5,$6,$7,$8,$9,$2,$3,0*
0 Add four circle primitives for the rounded corners*
1,1,$1+$1,$2,$3*
1,1,$1+$1,$4,$5*
1,1,$1+$1,$6,$7*
1,1,$1+$1,$8,$9*
0 Add four rect primitives between the rounded corners*
20,1,$1+$1,$2,$3,$4,$5,0*
20,1,$1+$1,$4,$5,$6,$7,0*
20,1,$1+$1,$6,$7,$8,$9,0*
20,1,$1+$1,$8,$9,$2,$3,0*%
G04 Aperture macros list end*
%ADD10R,1.700000X1.700000*%
%ADD11O,1.700000X1.700000*%
%ADD12C,1.524000*%
%ADD13C,3.200000*%
%ADD14R,3.500000X3.500000*%
%ADD15C,3.500000*%
%ADD16RoundRect,0.102000X-0.765000X-0.765000X0.765000X-0.765000X0.765000X0.765000X-0.765000X0.765000X0*%
%ADD17C,1.734000*%
%ADD18RoundRect,0.750000X0.750000X1.000000X-0.750000X1.000000X-0.750000X-1.000000X0.750000X-1.000000X0*%
%ADD19RoundRect,0.875000X0.875000X0.875000X-0.875000X0.875000X-0.875000X-0.875000X0.875000X-0.875000X0*%
%ADD20C,1.400000*%
%ADD21O,1.400000X1.400000*%
G04 APERTURE END LIST*
D10*
%TO.C,J1*%
X104475000Y-62080000D03*
D11*
X104475000Y-59540000D03*
X104475000Y-57000000D03*
%TD*%
D12*
%TO.C,U2*%
X33150000Y-56930000D03*
X35690000Y-56930000D03*
X38230000Y-56930000D03*
X40770000Y-56930000D03*
X43310000Y-56930000D03*
X45850000Y-56930000D03*
%TD*%
D13*
%TO.C,REF\u002A\u002A*%
X121000000Y-112500000D03*
%TD*%
%TO.C,REF\u002A\u002A*%
X29500000Y-22000000D03*
%TD*%
D10*
%TO.C,J3*%
X109525000Y-40700000D03*
D11*
X109525000Y-43240000D03*
X109525000Y-45780000D03*
X109525000Y-48320000D03*
%TD*%
D10*
%TO.C,J4*%
X115000000Y-37580000D03*
D11*
X115000000Y-35040000D03*
X115000000Y-32500000D03*
X115000000Y-29960000D03*
%TD*%
D13*
%TO.C,BT1*%
X46145000Y-97500000D03*
X101755000Y-97500000D03*
D14*
X37500000Y-97500000D03*
D15*
X109500000Y-97500000D03*
%TD*%
D16*
%TO.C,U1*%
X65000000Y-23940000D03*
D17*
X65000000Y-26480000D03*
X65000000Y-29020000D03*
X65000000Y-31560000D03*
X65000000Y-34100000D03*
X65000000Y-36640000D03*
X65000000Y-39180000D03*
X65000000Y-41720000D03*
X65000000Y-44260000D03*
X65000000Y-46800000D03*
X65000000Y-49340000D03*
X65000000Y-51880000D03*
X65000000Y-54420000D03*
X65000000Y-56960000D03*
X65000000Y-59500000D03*
X65000000Y-62040000D03*
X65000000Y-64580000D03*
X65000000Y-67120000D03*
X65000000Y-69660000D03*
X90400000Y-69660000D03*
X90400000Y-67120000D03*
X90400000Y-64580000D03*
X90400000Y-62040000D03*
X90400000Y-59500000D03*
X90400000Y-56960000D03*
X90400000Y-54420000D03*
X90400000Y-51880000D03*
X90400000Y-49340000D03*
X90400000Y-46800000D03*
X90400000Y-44260000D03*
X90400000Y-41720000D03*
X90400000Y-39180000D03*
X90400000Y-36640000D03*
X90400000Y-34100000D03*
X90400000Y-31560000D03*
X90400000Y-29020000D03*
X90400000Y-26480000D03*
X90400000Y-23940000D03*
%TD*%
D14*
%TO.C,J5*%
X115000000Y-78500000D03*
D18*
X121000000Y-78500000D03*
D19*
X118000000Y-73800000D03*
%TD*%
D20*
%TO.C,R1*%
X97000000Y-52690000D03*
D21*
X97000000Y-60310000D03*
%TD*%
M02*
