M48
; DRILL file {KiCad 8.0.8} date 2025-02-21T17:49:05-0500
; FORMAT={-:-/ absolute / inch / decimal}
; #@! TF.CreationDate,2025-02-21T17:49:05-05:00
; #@! TF.GenerationSoftware,Kicad,Pcbnew,8.0.8
; #@! TF.FileFunction,Plated,1,2,PTH
FMAT,2
INCH
; #@! TA.AperFunction,Plated,PTH,ViaDrill
T1C0.0118
; #@! TA.AperFunction,Plated,PTH,ComponentDrill
T2C0.0276
; #@! TA.AperFunction,Plated,PTH,ComponentDrill
T3C0.0300
; #@! TA.AperFunction,Plated,PTH,ComponentDrill
T4C0.0394
; #@! TA.AperFunction,Plated,PTH,ComponentDrill
T5C0.0402
; #@! TA.AperFunction,Plated,PTH,ComponentDrill
T6C0.0787
%
G90
G05
T1
X4.6063Y-0.9055
X4.7638Y-0.9055
T2
X3.8189Y-2.0744
X3.8189Y-2.3744
T3
X1.3051Y-2.2413
X1.4051Y-2.2413
X1.5051Y-2.2413
X1.6051Y-2.2413
X1.7051Y-2.2413
X1.8051Y-2.2413
T4
X4.1132Y-2.2441
X4.1132Y-2.3441
X4.1132Y-2.4441
X4.312Y-1.6024
X4.312Y-1.7024
X4.312Y-1.8024
X4.312Y-1.9024
X4.5276Y-1.1795
X4.5276Y-1.2795
X4.5276Y-1.3795
X4.5276Y-1.4795
T5
X2.5591Y-0.9425
X2.5591Y-1.0425
X2.5591Y-1.1425
X2.5591Y-1.2425
X2.5591Y-1.3425
X2.5591Y-1.4425
X2.5591Y-1.5425
X2.5591Y-1.6425
X2.5591Y-1.7425
X2.5591Y-1.8425
X2.5591Y-1.9425
X2.5591Y-2.0425
X2.5591Y-2.1425
X2.5591Y-2.2425
X2.5591Y-2.3425
X2.5591Y-2.4425
X2.5591Y-2.5425
X2.5591Y-2.6425
X2.5591Y-2.7425
X3.5591Y-0.9425
X3.5591Y-1.0425
X3.5591Y-1.1425
X3.5591Y-1.2425
X3.5591Y-1.3425
X3.5591Y-1.4425
X3.5591Y-1.5425
X3.5591Y-1.6425
X3.5591Y-1.7425
X3.5591Y-1.8425
X3.5591Y-1.9425
X3.5591Y-2.0425
X3.5591Y-2.1425
X3.5591Y-2.2425
X3.5591Y-2.3425
X3.5591Y-2.4425
X3.5591Y-2.5425
X3.5591Y-2.6425
X3.5591Y-2.7425
T6
X1.4764Y-3.8386
X4.311Y-3.8386
T4
G00X4.5276Y-3.1299
M15
G01X4.5276Y-3.0512
M16
G05
G00X4.685Y-2.9055
M15
G01X4.6063Y-2.9055
M16
G05
G00X4.7638Y-3.1299
M15
G01X4.7638Y-3.0512
M16
G05
M30
