%TF.GenerationSoftware,KiCad,Pcbnew,8.0.8*%
%TF.CreationDate,2025-02-21T17:49:15-05:00*%
%TF.ProjectId,linchenajuancarlos,6c696e63-6865-46e6-916a-75616e636172,rev?*%
%TF.SameCoordinates,Original*%
%TF.FileFunction,Legend,Top*%
%TF.FilePolarity,Positive*%
%FSLAX46Y46*%
G04 Gerber Fmt 4.6, Leading zero omitted, Abs format (unit mm)*
G04 Created by KiCad (PCBNEW 8.0.8) date 2025-02-21 17:49:15*
%MOMM*%
%LPD*%
G01*
G04 APERTURE LIST*
%ADD10C,0.150000*%
%ADD11C,0.120000*%
%ADD12C,0.127000*%
%ADD13C,0.200000*%
G04 APERTURE END LIST*
D10*
X104141666Y-64304819D02*
X104141666Y-65019104D01*
X104141666Y-65019104D02*
X104094047Y-65161961D01*
X104094047Y-65161961D02*
X103998809Y-65257200D01*
X103998809Y-65257200D02*
X103855952Y-65304819D01*
X103855952Y-65304819D02*
X103760714Y-65304819D01*
X105141666Y-65304819D02*
X104570238Y-65304819D01*
X104855952Y-65304819D02*
X104855952Y-64304819D01*
X104855952Y-64304819D02*
X104760714Y-64447676D01*
X104760714Y-64447676D02*
X104665476Y-64542914D01*
X104665476Y-64542914D02*
X104570238Y-64590533D01*
X38738095Y-45724819D02*
X38738095Y-46534342D01*
X38738095Y-46534342D02*
X38785714Y-46629580D01*
X38785714Y-46629580D02*
X38833333Y-46677200D01*
X38833333Y-46677200D02*
X38928571Y-46724819D01*
X38928571Y-46724819D02*
X39119047Y-46724819D01*
X39119047Y-46724819D02*
X39214285Y-46677200D01*
X39214285Y-46677200D02*
X39261904Y-46629580D01*
X39261904Y-46629580D02*
X39309523Y-46534342D01*
X39309523Y-46534342D02*
X39309523Y-45724819D01*
X39738095Y-45820057D02*
X39785714Y-45772438D01*
X39785714Y-45772438D02*
X39880952Y-45724819D01*
X39880952Y-45724819D02*
X40119047Y-45724819D01*
X40119047Y-45724819D02*
X40214285Y-45772438D01*
X40214285Y-45772438D02*
X40261904Y-45820057D01*
X40261904Y-45820057D02*
X40309523Y-45915295D01*
X40309523Y-45915295D02*
X40309523Y-46010533D01*
X40309523Y-46010533D02*
X40261904Y-46153390D01*
X40261904Y-46153390D02*
X39690476Y-46724819D01*
X39690476Y-46724819D02*
X40309523Y-46724819D01*
X119666666Y-109204819D02*
X119333333Y-108728628D01*
X119095238Y-109204819D02*
X119095238Y-108204819D01*
X119095238Y-108204819D02*
X119476190Y-108204819D01*
X119476190Y-108204819D02*
X119571428Y-108252438D01*
X119571428Y-108252438D02*
X119619047Y-108300057D01*
X119619047Y-108300057D02*
X119666666Y-108395295D01*
X119666666Y-108395295D02*
X119666666Y-108538152D01*
X119666666Y-108538152D02*
X119619047Y-108633390D01*
X119619047Y-108633390D02*
X119571428Y-108681009D01*
X119571428Y-108681009D02*
X119476190Y-108728628D01*
X119476190Y-108728628D02*
X119095238Y-108728628D01*
X120095238Y-108681009D02*
X120428571Y-108681009D01*
X120571428Y-109204819D02*
X120095238Y-109204819D01*
X120095238Y-109204819D02*
X120095238Y-108204819D01*
X120095238Y-108204819D02*
X120571428Y-108204819D01*
X121333333Y-108681009D02*
X121000000Y-108681009D01*
X121000000Y-109204819D02*
X121000000Y-108204819D01*
X121000000Y-108204819D02*
X121476190Y-108204819D01*
X122000000Y-108204819D02*
X122000000Y-108442914D01*
X121761905Y-108347676D02*
X122000000Y-108442914D01*
X122000000Y-108442914D02*
X122238095Y-108347676D01*
X121857143Y-108633390D02*
X122000000Y-108442914D01*
X122000000Y-108442914D02*
X122142857Y-108633390D01*
X122761905Y-108204819D02*
X122761905Y-108442914D01*
X122523810Y-108347676D02*
X122761905Y-108442914D01*
X122761905Y-108442914D02*
X123000000Y-108347676D01*
X122619048Y-108633390D02*
X122761905Y-108442914D01*
X122761905Y-108442914D02*
X122904762Y-108633390D01*
X28166666Y-18704819D02*
X27833333Y-18228628D01*
X27595238Y-18704819D02*
X27595238Y-17704819D01*
X27595238Y-17704819D02*
X27976190Y-17704819D01*
X27976190Y-17704819D02*
X28071428Y-17752438D01*
X28071428Y-17752438D02*
X28119047Y-17800057D01*
X28119047Y-17800057D02*
X28166666Y-17895295D01*
X28166666Y-17895295D02*
X28166666Y-18038152D01*
X28166666Y-18038152D02*
X28119047Y-18133390D01*
X28119047Y-18133390D02*
X28071428Y-18181009D01*
X28071428Y-18181009D02*
X27976190Y-18228628D01*
X27976190Y-18228628D02*
X27595238Y-18228628D01*
X28595238Y-18181009D02*
X28928571Y-18181009D01*
X29071428Y-18704819D02*
X28595238Y-18704819D01*
X28595238Y-18704819D02*
X28595238Y-17704819D01*
X28595238Y-17704819D02*
X29071428Y-17704819D01*
X29833333Y-18181009D02*
X29500000Y-18181009D01*
X29500000Y-18704819D02*
X29500000Y-17704819D01*
X29500000Y-17704819D02*
X29976190Y-17704819D01*
X30500000Y-17704819D02*
X30500000Y-17942914D01*
X30261905Y-17847676D02*
X30500000Y-17942914D01*
X30500000Y-17942914D02*
X30738095Y-17847676D01*
X30357143Y-18133390D02*
X30500000Y-17942914D01*
X30500000Y-17942914D02*
X30642857Y-18133390D01*
X31261905Y-17704819D02*
X31261905Y-17942914D01*
X31023810Y-17847676D02*
X31261905Y-17942914D01*
X31261905Y-17942914D02*
X31500000Y-17847676D01*
X31119048Y-18133390D02*
X31261905Y-17942914D01*
X31261905Y-17942914D02*
X31404762Y-18133390D01*
X109191666Y-37384819D02*
X109191666Y-38099104D01*
X109191666Y-38099104D02*
X109144047Y-38241961D01*
X109144047Y-38241961D02*
X109048809Y-38337200D01*
X109048809Y-38337200D02*
X108905952Y-38384819D01*
X108905952Y-38384819D02*
X108810714Y-38384819D01*
X109572619Y-37384819D02*
X110191666Y-37384819D01*
X110191666Y-37384819D02*
X109858333Y-37765771D01*
X109858333Y-37765771D02*
X110001190Y-37765771D01*
X110001190Y-37765771D02*
X110096428Y-37813390D01*
X110096428Y-37813390D02*
X110144047Y-37861009D01*
X110144047Y-37861009D02*
X110191666Y-37956247D01*
X110191666Y-37956247D02*
X110191666Y-38194342D01*
X110191666Y-38194342D02*
X110144047Y-38289580D01*
X110144047Y-38289580D02*
X110096428Y-38337200D01*
X110096428Y-38337200D02*
X110001190Y-38384819D01*
X110001190Y-38384819D02*
X109715476Y-38384819D01*
X109715476Y-38384819D02*
X109620238Y-38337200D01*
X109620238Y-38337200D02*
X109572619Y-38289580D01*
X114666666Y-39804819D02*
X114666666Y-40519104D01*
X114666666Y-40519104D02*
X114619047Y-40661961D01*
X114619047Y-40661961D02*
X114523809Y-40757200D01*
X114523809Y-40757200D02*
X114380952Y-40804819D01*
X114380952Y-40804819D02*
X114285714Y-40804819D01*
X115571428Y-40138152D02*
X115571428Y-40804819D01*
X115333333Y-39757200D02*
X115095238Y-40471485D01*
X115095238Y-40471485D02*
X115714285Y-40471485D01*
X72714285Y-98431009D02*
X72857142Y-98478628D01*
X72857142Y-98478628D02*
X72904761Y-98526247D01*
X72904761Y-98526247D02*
X72952380Y-98621485D01*
X72952380Y-98621485D02*
X72952380Y-98764342D01*
X72952380Y-98764342D02*
X72904761Y-98859580D01*
X72904761Y-98859580D02*
X72857142Y-98907200D01*
X72857142Y-98907200D02*
X72761904Y-98954819D01*
X72761904Y-98954819D02*
X72380952Y-98954819D01*
X72380952Y-98954819D02*
X72380952Y-97954819D01*
X72380952Y-97954819D02*
X72714285Y-97954819D01*
X72714285Y-97954819D02*
X72809523Y-98002438D01*
X72809523Y-98002438D02*
X72857142Y-98050057D01*
X72857142Y-98050057D02*
X72904761Y-98145295D01*
X72904761Y-98145295D02*
X72904761Y-98240533D01*
X72904761Y-98240533D02*
X72857142Y-98335771D01*
X72857142Y-98335771D02*
X72809523Y-98383390D01*
X72809523Y-98383390D02*
X72714285Y-98431009D01*
X72714285Y-98431009D02*
X72380952Y-98431009D01*
X73238095Y-97954819D02*
X73809523Y-97954819D01*
X73523809Y-98954819D02*
X73523809Y-97954819D01*
X74666666Y-98954819D02*
X74095238Y-98954819D01*
X74380952Y-98954819D02*
X74380952Y-97954819D01*
X74380952Y-97954819D02*
X74285714Y-98097676D01*
X74285714Y-98097676D02*
X74190476Y-98192914D01*
X74190476Y-98192914D02*
X74095238Y-98240533D01*
X66143095Y-20494819D02*
X66143095Y-21304342D01*
X66143095Y-21304342D02*
X66190714Y-21399580D01*
X66190714Y-21399580D02*
X66238333Y-21447200D01*
X66238333Y-21447200D02*
X66333571Y-21494819D01*
X66333571Y-21494819D02*
X66524047Y-21494819D01*
X66524047Y-21494819D02*
X66619285Y-21447200D01*
X66619285Y-21447200D02*
X66666904Y-21399580D01*
X66666904Y-21399580D02*
X66714523Y-21304342D01*
X66714523Y-21304342D02*
X66714523Y-20494819D01*
X67714523Y-21494819D02*
X67143095Y-21494819D01*
X67428809Y-21494819D02*
X67428809Y-20494819D01*
X67428809Y-20494819D02*
X67333571Y-20637676D01*
X67333571Y-20637676D02*
X67238333Y-20732914D01*
X67238333Y-20732914D02*
X67143095Y-20780533D01*
X123116666Y-72204819D02*
X123116666Y-72919104D01*
X123116666Y-72919104D02*
X123069047Y-73061961D01*
X123069047Y-73061961D02*
X122973809Y-73157200D01*
X122973809Y-73157200D02*
X122830952Y-73204819D01*
X122830952Y-73204819D02*
X122735714Y-73204819D01*
X124069047Y-72204819D02*
X123592857Y-72204819D01*
X123592857Y-72204819D02*
X123545238Y-72681009D01*
X123545238Y-72681009D02*
X123592857Y-72633390D01*
X123592857Y-72633390D02*
X123688095Y-72585771D01*
X123688095Y-72585771D02*
X123926190Y-72585771D01*
X123926190Y-72585771D02*
X124021428Y-72633390D01*
X124021428Y-72633390D02*
X124069047Y-72681009D01*
X124069047Y-72681009D02*
X124116666Y-72776247D01*
X124116666Y-72776247D02*
X124116666Y-73014342D01*
X124116666Y-73014342D02*
X124069047Y-73109580D01*
X124069047Y-73109580D02*
X124021428Y-73157200D01*
X124021428Y-73157200D02*
X123926190Y-73204819D01*
X123926190Y-73204819D02*
X123688095Y-73204819D01*
X123688095Y-73204819D02*
X123592857Y-73157200D01*
X123592857Y-73157200D02*
X123545238Y-73109580D01*
X99374819Y-56666666D02*
X98898628Y-56999999D01*
X99374819Y-57238094D02*
X98374819Y-57238094D01*
X98374819Y-57238094D02*
X98374819Y-56857142D01*
X98374819Y-56857142D02*
X98422438Y-56761904D01*
X98422438Y-56761904D02*
X98470057Y-56714285D01*
X98470057Y-56714285D02*
X98565295Y-56666666D01*
X98565295Y-56666666D02*
X98708152Y-56666666D01*
X98708152Y-56666666D02*
X98803390Y-56714285D01*
X98803390Y-56714285D02*
X98851009Y-56761904D01*
X98851009Y-56761904D02*
X98898628Y-56857142D01*
X98898628Y-56857142D02*
X98898628Y-57238094D01*
X99374819Y-55714285D02*
X99374819Y-56285713D01*
X99374819Y-55999999D02*
X98374819Y-55999999D01*
X98374819Y-55999999D02*
X98517676Y-56095237D01*
X98517676Y-56095237D02*
X98612914Y-56190475D01*
X98612914Y-56190475D02*
X98660533Y-56285713D01*
D11*
%TO.C,J1*%
X103145000Y-60810000D02*
X103145000Y-55670000D01*
X103145000Y-63410000D02*
X103145000Y-62080000D01*
X104475000Y-63410000D02*
X103145000Y-63410000D01*
X105805000Y-55670000D02*
X103145000Y-55670000D01*
X105805000Y-60810000D02*
X103145000Y-60810000D01*
X105805000Y-60810000D02*
X105805000Y-55670000D01*
%TO.C,U2*%
X31880000Y-32800000D02*
X47120000Y-32800000D01*
X47120000Y-58200000D01*
X31880000Y-58200000D01*
X31880000Y-32800000D01*
%TO.C,J3*%
X108195000Y-41970000D02*
X108195000Y-49650000D01*
X108195000Y-41970000D02*
X110855000Y-41970000D01*
X108195000Y-49650000D02*
X110855000Y-49650000D01*
X109525000Y-39370000D02*
X110855000Y-39370000D01*
X110855000Y-39370000D02*
X110855000Y-40700000D01*
X110855000Y-41970000D02*
X110855000Y-49650000D01*
%TO.C,J4*%
X113670000Y-36310000D02*
X113670000Y-28630000D01*
X113670000Y-38910000D02*
X113670000Y-37580000D01*
X115000000Y-38910000D02*
X113670000Y-38910000D01*
X116330000Y-28630000D02*
X113670000Y-28630000D01*
X116330000Y-36310000D02*
X113670000Y-36310000D01*
X116330000Y-36310000D02*
X116330000Y-28630000D01*
%TO.C,BT1*%
X34500000Y-87450000D02*
X112500000Y-87450000D01*
X34500000Y-107550000D02*
X34500000Y-87450000D01*
X112500000Y-87450000D02*
X112500000Y-107550000D01*
X112500000Y-107550000D02*
X34500000Y-107550000D01*
D12*
%TO.C,U1*%
X63750000Y-22690000D02*
X63750000Y-70890000D01*
X63750000Y-70890000D02*
X73630000Y-70890000D01*
X73630000Y-70890000D02*
X81760000Y-70890000D01*
X81760000Y-70890000D02*
X91650000Y-70890000D01*
X91650000Y-22690000D02*
X63750000Y-22690000D01*
X91650000Y-70890000D02*
X91650000Y-22690000D01*
D13*
X63230000Y-23820000D02*
G75*
G02*
X63030000Y-23820000I-100000J0D01*
G01*
X63030000Y-23820000D02*
G75*
G02*
X63230000Y-23820000I100000J0D01*
G01*
D11*
%TO.C,J5*%
X113900000Y-82250000D02*
X113900000Y-83300000D01*
X114100000Y-73900000D02*
X116000000Y-73900000D01*
X114100000Y-76600000D02*
X114100000Y-73900000D01*
X114100000Y-83100000D02*
X114100000Y-80500000D01*
X114950000Y-83300000D02*
X113900000Y-83300000D01*
X120000000Y-73900000D02*
X128800000Y-73900000D01*
X128800000Y-73900000D02*
X128800000Y-83100000D01*
X128800000Y-83100000D02*
X114100000Y-83100000D01*
%TO.C,R1*%
X96080000Y-54580000D02*
X96080000Y-58420000D01*
X96080000Y-58420000D02*
X97920000Y-58420000D01*
X97000000Y-53630000D02*
X97000000Y-54580000D01*
X97000000Y-59370000D02*
X97000000Y-58420000D01*
X97920000Y-54580000D02*
X96080000Y-54580000D01*
X97920000Y-58420000D02*
X97920000Y-54580000D01*
%TD*%
M02*
